<svg version="1.1" id="Layer_1" xmlns="http://www.w3.org/2000/svg" xmlns:xlink="http://www.w3.org/1999/xlink" x="0px" y="0px"
	 width="100%" viewBox="0 0 1920 925" enable-background="new 0 0 1920 925" xml:space="preserve">
<path fill="#393E46" opacity="1.000000" stroke="none" 
	d="
M1447.000000,926.000000 
	C964.666748,926.000000 482.833496,926.000000 1.000194,926.000000 
	C1.000129,617.666809 1.000129,309.333618 1.000065,1.000212 
	C2.166525,1.000000 3.333050,1.000000 4.499575,1.000000 
	C643.332825,1.000000 1282.166016,1.000000 1920.999512,1.000000 
	C1920.999634,309.333038 1920.999634,617.666077 1920.999756,925.999512 
	C1763.166626,926.000000 1605.333374,926.000000 1447.000000,926.000000 
M799.293213,273.722870 
	C799.291809,279.087585 799.290344,284.452301 799.436279,290.406097 
	C800.480713,289.513733 801.525085,288.621368 802.583740,287.716797 
	C806.610779,291.283783 814.387451,292.250122 816.990601,289.422638 
	C818.797546,287.460052 817.282532,280.685669 814.192627,277.532257 
	C812.087158,275.383484 809.742493,273.959717 806.555725,276.173279 
	C809.075500,277.427368 811.101562,278.435760 813.646240,279.702240 
	C808.957581,281.221161 805.496033,282.342529 802.222900,283.402863 
	C801.556763,280.417664 800.758728,276.841827 799.293213,273.722870 
M655.985474,129.974701 
	C655.985474,129.974701 655.892212,129.936142 656.717896,129.957199 
	C662.530884,127.086266 668.362732,124.252518 674.145935,121.322800 
	C675.993835,120.386635 677.712830,119.196068 679.500305,118.954948 
	C679.106689,120.912125 678.693665,122.865631 678.322876,124.827118 
	C676.686035,133.484802 674.305176,142.084595 673.609802,150.818115 
	C672.571960,163.853470 682.414917,171.664291 694.879517,168.029190 
	C700.159790,166.489288 704.992798,163.415924 710.418823,160.855606 
	C714.195679,165.694153 719.422180,168.908859 726.522522,168.999466 
	C733.791077,169.092194 738.893921,164.959579 744.313721,160.455414 
	C747.769409,166.871780 753.120239,170.100784 759.706543,168.659897 
	C765.666321,167.356079 771.257324,164.366547 776.237488,162.422287 
	C781.023376,165.016907 785.905029,167.663498 790.737976,170.283661 
	C789.704651,171.127670 788.104004,172.286392 786.676025,173.628830 
	C781.990906,178.033188 780.339905,185.279892 782.611938,191.069824 
	C784.724304,196.452972 790.289917,199.937439 796.944641,199.999557 
	C799.435181,200.022797 801.926453,199.963852 805.294189,199.943161 
	C815.557739,198.651428 822.960571,193.643768 826.283875,183.534058 
	C827.368530,180.234421 827.757751,176.670776 829.117859,173.508667 
	C830.136292,171.140656 831.882202,168.828232 833.884644,167.208862 
	C836.155334,165.372482 839.073181,164.336365 842.342773,163.280121 
	C856.588806,173.882065 869.771729,168.017105 883.233704,160.094528 
	C882.907959,162.922318 882.651428,165.148941 882.328125,167.955933 
	C890.019958,167.955933 897.440125,167.955933 905.687256,167.969421 
	C909.579346,168.525848 910.350586,165.934128 910.960571,162.940353 
	C913.670044,149.642044 916.363220,136.338486 919.328247,123.096329 
	C919.749878,121.213234 921.631104,119.656944 923.228333,118.555115 
	C925.369568,124.075661 930.135315,122.884979 935.278503,122.938644 
	C942.495239,122.189842 946.252563,117.920471 946.008362,110.746346 
	C945.781006,104.066521 941.270813,100.127258 932.917053,100.087463 
	C928.458740,100.771706 924.000488,101.455956 920.128540,102.050209 
	C918.157166,101.267166 916.583557,100.192558 914.944214,100.080482 
	C911.000122,99.810860 906.977295,100.378899 903.074646,99.895096 
	C898.042297,99.271240 895.249512,100.901306 894.124878,105.881409 
	C889.766968,102.675835 886.169983,97.861473 878.933960,99.101181 
	C863.382812,96.865707 852.278381,103.378143 844.581787,116.576515 
	C843.497986,118.435059 842.465759,120.323708 840.861267,121.677902 
	C841.716614,116.206940 842.294250,110.672905 843.517761,105.285545 
	C844.447632,101.191185 843.238037,99.640076 838.243042,99.984924 
	C833.102905,99.987167 827.920410,100.401115 822.834534,99.876877 
	C817.658020,99.343277 816.079956,101.569466 815.212219,106.236725 
	C813.061523,117.804840 810.591431,129.324402 807.822937,140.760178 
	C807.003113,144.146698 804.762695,147.189301 803.093079,149.487579 
	C804.428894,142.163910 805.670349,134.821457 807.124634,127.521416 
	C808.896362,118.628418 810.847046,109.771103 812.827942,100.388687 
	C810.696838,100.244858 809.263000,100.148094 806.913391,100.033195 
	C801.424622,100.019394 795.919128,100.262764 790.452576,99.907051 
	C786.384155,99.642326 784.682007,100.849998 783.877197,105.063881 
	C781.445007,117.798454 778.709351,130.489395 775.548584,143.060715 
	C774.731262,146.311234 771.919922,149.060410 770.011292,151.156311 
	C771.520996,142.717758 772.931335,134.259872 774.568481,125.846123 
	C776.193542,117.493797 778.046936,109.185898 779.898254,100.393135 
	C777.734314,100.243629 776.295654,100.144226 773.937744,100.029068 
	C767.964844,100.017197 761.991882,99.983231 756.019104,100.004349 
	C753.641296,100.012756 751.126648,100.685547 748.910095,100.124382 
	C739.040710,97.625793 730.476318,99.848846 723.205994,106.788826 
	C712.967102,116.562614 708.327393,128.955231 707.224426,142.789474 
	C706.921326,146.591690 705.895874,149.568619 701.675049,150.514404 
	C701.689636,149.068314 701.467834,147.573212 701.755859,146.183823 
	C704.188110,134.451553 706.735229,122.743195 709.204834,111.018578 
	C711.735596,99.003677 714.217834,86.978546 716.828491,74.443207 
	C714.774719,74.276398 713.339661,74.159836 711.052185,74.071030 
	C706.673218,74.678619 702.295044,75.772942 697.915100,75.780190 
	C691.276550,75.791176 687.006897,77.952011 685.826843,84.971855 
	C684.578186,83.520737 683.201172,82.160149 682.102844,80.602989 
	C677.049133,73.438202 670.117554,69.710342 660.661133,69.167725 
	C641.367065,65.328941 624.792480,70.733353 610.729004,84.150002 
	C605.537048,89.103096 602.079346,95.129890 601.762695,102.551926 
	C601.384949,111.409279 605.921631,116.755447 614.706238,117.776878 
	C616.351379,117.968163 618.030762,117.864502 620.519775,117.941620 
	C621.345459,117.960945 622.171082,117.980270 623.003113,118.789139 
	C619.583984,134.932968 616.164917,151.076797 612.601624,167.901321 
	C620.795715,167.901321 628.200195,167.901321 636.476746,167.947281 
	C637.979431,167.085068 640.552979,166.470734 640.818909,165.322235 
	C643.422363,154.074677 645.641174,142.738083 648.685730,131.160828 
	C649.949158,131.085098 651.212646,131.009369 653.250977,130.909332 
	C654.174866,130.566544 655.098816,130.223740 655.985474,129.974701 
M1204.042725,73.077179 
	C1201.419189,73.086678 1198.795776,73.096184 1195.752319,72.645828 
	C1195.815918,69.417519 1193.941772,68.615105 1190.207642,68.825516 
	C1188.544189,68.792480 1186.840576,68.980064 1185.224365,68.686859 
	C1179.371948,67.625175 1176.833008,70.183914 1175.071533,75.771507 
	C1170.574097,90.037247 1165.319824,104.064346 1159.779907,117.535942 
	C1159.521362,115.584549 1159.051270,113.634499 1159.038940,111.681526 
	C1158.961792,99.516785 1158.946167,87.351204 1159.002075,75.186325 
	C1159.019897,71.321754 1158.096436,68.535629 1152.464355,68.787834 
	C1147.969482,68.765747 1143.453857,69.003143 1138.985840,68.645966 
	C1134.817505,68.312744 1132.848145,69.771217 1131.504761,73.843475 
	C1126.711548,88.374107 1121.482544,102.761032 1115.804565,116.563263 
	C1115.534546,115.287888 1115.062988,114.018356 1115.025879,112.736244 
	C1114.646973,99.644081 1114.205933,86.551048 1114.090332,73.455536 
	C1114.055054,69.468994 1113.009155,67.398750 1107.831543,68.110710 
	C1104.666016,68.082359 1101.460815,67.715683 1098.341553,68.081810 
	C1081.103882,70.105171 1066.428223,77.002197 1057.626343,92.588219 
	C1049.573486,106.847664 1056.469604,117.846039 1073.556030,117.938072 
	C1076.679688,118.194283 1078.443115,117.472183 1077.116699,113.754387 
	C1074.752686,107.128632 1075.747803,100.485336 1078.604736,94.411186 
	C1079.991577,91.462433 1083.274414,89.405487 1085.906006,87.868828 
	C1086.537964,114.479355 1087.169800,141.089874 1087.808594,167.990280 
	C1095.755493,167.990280 1102.876221,167.990280 1110.791260,167.981430 
	C1114.484985,168.548920 1115.719604,166.041153 1116.747681,163.243362 
	C1119.100952,156.839203 1121.307495,150.374512 1123.885620,144.061798 
	C1125.980347,138.932465 1128.528931,133.988525 1131.089844,129.883972 
	C1131.456299,142.407562 1131.822632,154.931137 1132.202148,167.902573 
	C1140.013794,167.902573 1147.254395,167.902573 1155.342163,167.935257 
	C1158.685303,168.357254 1159.986572,166.312729 1160.997314,163.561188 
	C1167.628784,145.510254 1174.287109,127.468605 1181.087280,109.480873 
	C1181.969238,107.147758 1183.716675,105.141846 1185.130615,103.795853 
	C1182.579224,116.017151 1179.898193,128.213531 1177.543945,140.472687 
	C1176.671875,145.014420 1176.024536,149.727570 1176.228271,154.320267 
	C1176.622314,163.204712 1183.134644,169.210480 1192.039429,168.766220 
	C1196.573242,168.540039 1201.035278,166.874191 1205.725830,165.814804 
	C1207.441406,168.320267 1207.441406,168.320267 1229.683594,167.968704 
	C1233.569580,168.524979 1234.341064,165.941513 1234.962769,162.947800 
	C1237.552490,150.475418 1240.056641,137.979538 1243.030518,125.597519 
	C1243.620361,123.141113 1246.141113,121.148430 1247.965332,119.780205 
	C1247.660034,122.237038 1247.496948,124.721680 1247.022949,127.145515 
	C1245.559082,134.631256 1243.500366,142.033478 1242.544678,149.578613 
	C1240.821533,163.182098 1251.222412,171.947891 1264.434448,168.143341 
	C1268.462769,166.983322 1272.127686,164.561035 1276.084839,162.656281 
	C1284.045166,168.299942 1286.456665,169.230347 1293.546021,168.870972 
	C1296.512817,168.720566 1299.464111,168.262878 1303.316406,167.942886 
	C1317.644287,167.135422 1326.116333,155.913727 1325.638306,143.105759 
	C1325.114868,129.078552 1323.749268,115.084267 1323.089355,101.059692 
	C1322.907104,97.188019 1321.775513,95.465118 1316.978516,95.988983 
	C1311.704102,96.616783 1306.435791,97.671211 1301.153442,97.747253 
	C1296.288574,97.817276 1294.427368,99.965515 1292.882812,104.352425 
	C1288.273315,117.444275 1284.672119,131.095016 1274.621094,141.601059 
	C1273.242676,143.041916 1273.002686,145.540924 1272.120605,147.498169 
	C1271.543213,148.779678 1270.758545,149.967743 1270.021973,150.269608 
	C1270.508057,146.189621 1270.920776,142.099289 1271.495361,138.031830 
	C1272.622803,130.052353 1274.395630,122.118622 1274.871948,114.104774 
	C1275.402100,105.187744 1269.823853,100.150528 1259.969116,100.080460 
	C1252.577881,97.518623 1245.308594,102.604012 1237.699341,100.198853 
	C1233.924072,99.005554 1229.436279,100.267471 1225.314453,99.912682 
	C1221.314209,99.568367 1219.894165,101.154823 1219.132446,104.957901 
	C1216.590698,117.650948 1213.915771,130.331558 1210.699463,142.864944 
	C1209.930298,145.862000 1206.865112,148.269852 1204.450928,150.297745 
	C1204.431519,148.341293 1204.089478,146.322662 1204.452271,144.439865 
	C1205.610229,138.430298 1207.066040,132.478806 1208.340454,126.490799 
	C1210.155640,117.962410 1211.911987,109.421501 1213.797974,100.385284 
	C1211.692627,100.243706 1210.260986,100.147430 1207.913696,100.032867 
	C1200.438477,100.307549 1192.963257,100.582237 1185.338501,99.971565 
	C1186.672241,96.929802 1188.005981,93.888039 1189.843994,91.267609 
	C1193.472534,96.560989 1198.734375,97.578590 1205.496216,96.935776 
	C1212.869507,96.605637 1218.093872,91.329086 1217.970215,84.336876 
	C1217.858887,78.027672 1212.109985,73.120346 1204.042725,73.077179 
M1011.050781,649.944763 
	C977.505493,649.944763 943.960144,649.944763 910.055481,649.944763 
	C910.055481,662.094177 910.055481,673.537109 909.817749,685.596130 
	C910.823181,686.063660 911.816406,686.901123 912.836182,686.934814 
	C917.328613,687.083069 921.828674,686.999939 926.325989,686.999878 
	C953.809509,686.999695 981.292969,687.010498 1008.776489,686.979248 
	C1011.129761,686.976562 1014.033997,687.759644 1014.005493,683.654419 
	C1013.931396,672.994812 1014.014954,662.333923 1013.902710,651.674988 
	C1013.896973,651.128418 1012.649475,650.594971 1011.050781,649.944763 
M1012.626160,168.953766 
	C1021.687012,168.468414 1028.548462,162.312683 1029.827148,153.522049 
	C1030.766602,147.063492 1027.830444,142.390732 1022.058167,141.987106 
	C1020.537842,142.579773 1018.679077,142.804047 1017.559387,143.832733 
	C1013.911682,147.184052 1009.816895,148.813889 1004.913025,147.994476 
	C999.902222,147.157196 994.918579,146.157547 990.060303,144.519287 
	C994.805420,139.951874 999.326172,135.119202 1004.344482,130.874664 
	C1013.562073,123.078201 1024.053223,116.748169 1030.036011,105.542992 
	C1038.602905,89.497742 1028.687378,69.743317 1010.928345,69.160095 
	C1010.601562,69.064117 1010.274719,68.968140 1009.482239,68.517525 
	C1009.128418,68.353249 1008.774597,68.188980 1007.587646,68.276985 
	C1003.928528,68.213516 1000.255920,67.917824 996.612793,68.129807 
	C985.366089,68.784195 975.023376,76.937927 972.565125,86.859612 
	C969.516235,99.165642 975.471313,107.190430 988.335938,106.935036 
	C991.298157,106.001122 994.460693,105.448013 997.165710,104.025093 
	C999.817200,102.630341 1000.638000,100.478851 998.175415,97.549919 
	C992.580200,90.895264 992.709656,86.992027 998.797913,79.884926 
	C1000.520325,82.301079 1003.152344,84.503334 1003.780884,87.176682 
	C1005.212830,93.266861 1004.767456,99.632301 1001.265320,105.005409 
	C997.663147,110.532097 993.586914,115.819199 989.197083,120.746933 
	C982.683838,128.058243 975.445740,134.728943 969.015503,142.107498 
	C963.488831,148.449387 960.530823,155.910797 962.107239,164.677200 
	C962.687012,167.901474 964.015198,169.353653 967.091797,167.709808 
	C975.380798,163.280945 983.664124,164.845642 992.264709,166.792328 
	C998.607300,168.227936 1005.263306,168.278931 1012.626160,168.953766 
M841.500000,342.998413 
	C810.501892,342.998871 779.503723,342.963013 748.505737,343.018433 
	C736.842834,343.039307 729.061279,349.114410 729.046509,358.504730 
	C728.959167,413.834473 728.916016,469.164856 729.208618,524.493164 
	C729.227356,528.024719 731.581970,532.031677 733.927979,534.951172 
	C737.644714,539.576416 743.514282,539.937500 749.004639,539.952637 
	C783.668884,540.047974 818.333496,540.001221 852.997986,540.001160 
	C873.163391,540.001160 893.328979,540.048462 913.494141,539.981995 
	C925.418579,539.942688 932.963196,533.802368 932.973022,523.995544 
	C933.028076,468.999023 932.999512,414.002441 932.999817,359.005890 
	C932.999878,354.426971 931.774353,349.901001 927.712830,347.825623 
	C923.170898,345.504730 917.956482,343.310028 912.991333,343.210052 
	C889.502319,342.736938 865.998535,342.998627 841.500000,342.998413 
M1082.500000,342.997925 
	C1057.834839,342.998352 1033.169678,342.956696 1008.504700,343.017700 
	C996.841736,343.046539 989.060852,349.114197 989.046021,358.505188 
	C988.958618,413.835175 988.915527,469.165833 989.208191,524.494385 
	C989.226868,528.025818 991.582214,532.032593 993.928406,534.952026 
	C997.645386,539.577209 1003.514893,539.938416 1009.005249,539.953186 
	C1044.169678,540.047913 1079.334351,540.002014 1114.499023,540.001709 
	C1134.331177,540.001587 1154.163940,540.078796 1173.995483,539.968994 
	C1185.290771,539.906433 1192.940430,533.735352 1192.954590,524.494690 
	C1193.039429,469.164703 1193.084229,413.834045 1192.791504,358.505493 
	C1192.772949,354.974091 1190.417725,350.967346 1188.071655,348.047913 
	C1184.354736,343.422729 1178.485229,343.066040 1172.994751,343.047150 
	C1143.163452,342.944489 1113.331665,342.998108 1082.500000,342.997925 
M829.944580,302.146393 
	C825.494629,307.712341 823.308044,300.291199 819.485107,300.037415 
	C820.428589,304.754913 823.883545,306.806946 827.331909,306.504547 
	C829.316895,306.330505 831.889709,302.957001 832.614075,300.547546 
	C833.809448,296.571014 833.722412,292.208984 834.190918,287.870331 
	C843.939209,291.988129 845.113342,292.055176 848.771973,288.630371 
	C844.310364,288.805176 839.739441,289.703156 836.577454,284.726471 
	C840.962219,283.804169 845.719360,284.176239 845.651978,278.879120 
	C845.631775,277.294403 843.228455,274.773590 841.519897,274.372375 
	C837.630432,273.458984 834.930176,277.455444 833.628235,285.330475 
	C832.912659,282.600098 832.267212,280.137146 831.621704,277.674164 
	C831.187805,277.758575 830.753845,277.842957 830.319885,277.927338 
	C830.319885,279.510803 830.743042,281.254944 830.217407,282.638794 
	C829.488403,284.558380 828.046814,286.207336 826.910217,287.972137 
	C825.123718,286.635132 822.877380,285.613617 821.681763,283.871124 
	C820.518188,282.175354 820.430542,279.741272 819.606079,276.635284 
	C817.328613,286.409241 821.397766,290.581299 831.827759,289.625702 
	C831.283264,293.650970 830.761780,297.506500 829.944580,302.146393 
M1084.146851,290.401154 
	C1085.497192,289.962738 1086.847534,289.524323 1088.924927,288.849823 
	C1088.686157,291.678558 1088.617310,293.793976 1088.312988,295.874939 
	C1086.869263,305.746704 1085.678833,306.247589 1078.093140,300.331787 
	C1077.916748,300.194153 1077.504395,300.359222 1076.904419,300.406555 
	C1077.397217,304.770538 1080.843140,306.514221 1084.054077,306.479584 
	C1085.965576,306.458923 1088.952515,303.576782 1089.509766,301.467041 
	C1090.748901,296.775665 1090.764160,291.760956 1091.279541,286.865295 
	C1098.442505,292.076202 1101.739258,292.532745 1105.479980,288.844360 
	C1096.945068,288.908691 1096.128662,288.596710 1094.399902,284.539001 
	C1098.026001,283.821686 1102.707031,284.150177 1102.674316,278.823547 
	C1102.664917,277.289764 1100.567871,274.967194 1098.946167,274.410919 
	C1095.518799,273.235352 1092.182129,276.900177 1090.448853,283.092224 
	C1089.874268,281.198059 1089.326172,279.390808 1088.777954,277.583557 
	C1087.676025,279.351532 1088.125000,281.193268 1087.565430,282.646576 
	C1086.822632,284.575378 1085.292725,286.200989 1084.101074,287.956909 
	C1082.383057,286.780853 1080.134399,285.950348 1079.085205,284.338867 
	C1077.850830,282.442780 1077.656616,279.869415 1076.778931,276.768433 
	C1074.981934,284.646973 1077.149048,288.681396 1084.146851,290.401154 
M1071.674561,290.443909 
	C1075.467773,288.327820 1075.744019,284.258301 1072.440796,279.157166 
	C1069.782715,275.052368 1067.128052,274.259216 1064.145508,276.522614 
	C1066.046265,277.439423 1068.087524,278.423981 1070.753174,279.709747 
	C1066.007446,281.213898 1062.544067,282.311615 1059.126953,283.394684 
	C1058.747803,280.413818 1058.300415,276.895813 1057.853027,273.377838 
	C1057.433228,273.440765 1057.013550,273.503662 1056.593750,273.566589 
	C1056.593750,279.260101 1056.593750,284.953613 1056.593750,290.647125 
	C1056.890869,290.708496 1057.187988,290.769867 1057.485107,290.831238 
	C1058.118774,289.790985 1058.752319,288.750702 1059.471558,287.570007 
	C1062.597534,291.308899 1066.612915,291.517212 1071.674561,290.443909 
M795.118469,274.362000 
	C786.559021,270.158203 779.541382,270.725952 779.409424,275.632538 
	C783.783081,272.706665 788.261841,273.644623 792.494568,275.717743 
	C793.778320,276.346527 794.377747,278.372498 795.290649,279.758484 
	C793.811646,280.653595 792.344849,282.186310 790.849243,282.214966 
	C789.886230,282.233459 788.773804,280.112091 787.933777,278.816589 
	C787.415344,278.017181 787.283081,276.967346 786.977417,276.029938 
	C786.513855,276.126709 786.050293,276.223480 785.586731,276.320251 
	C786.089417,281.005310 786.592102,285.690369 787.094849,290.375397 
	C787.622620,290.315399 788.150330,290.255371 788.678101,290.195374 
	C788.894226,288.609283 789.110291,287.023224 789.306946,285.579376 
	C798.382507,283.003815 799.961853,280.235107 795.118469,274.362000 
M1046.338745,272.057739 
	C1037.762329,271.385437 1037.405273,271.501434 1036.472656,275.046112 
	C1038.519043,274.699005 1040.707275,274.327850 1042.537598,274.017395 
	C1043.142578,280.087402 1043.659912,285.277435 1044.177246,290.467468 
	C1044.694458,290.418610 1045.211670,290.369751 1045.728760,290.320862 
	C1045.922607,288.732422 1046.116455,287.143982 1046.317505,285.496185 
	C1047.501465,285.214508 1048.698486,285.273315 1049.363281,284.707184 
	C1051.353394,283.012512 1054.533203,281.129150 1054.609497,279.214172 
	C1054.687500,277.259857 1051.731201,275.089722 1049.904175,273.207062 
	C1049.287354,272.571381 1048.062256,272.525848 1046.338745,272.057739 
M1138.595459,290.305878 
	C1140.865723,290.474243 1143.135986,290.642639 1145.406250,290.811005 
	C1145.459106,290.458313 1145.511841,290.105591 1145.564697,289.752899 
	C1144.485962,289.124786 1143.407227,288.496704 1143.528809,288.567505 
	C1143.747559,283.897186 1144.201538,280.114105 1143.923340,276.385681 
	C1143.844482,275.329132 1141.637207,273.699066 1140.391479,273.685547 
	C1139.327759,273.674011 1138.209961,275.573944 1137.209106,276.710205 
	C1137.083374,276.852997 1137.524170,277.494781 1137.732422,277.974426 
	C1138.819946,277.225159 1139.788696,276.557617 1140.757568,275.890106 
	C1141.265381,276.041321 1141.773193,276.192566 1142.281128,276.343781 
	C1141.822021,279.399536 1141.697266,282.571503 1140.700073,285.440216 
	C1140.400757,286.301392 1137.673706,286.335907 1136.050781,286.714874 
	C1134.424927,287.094513 1132.789185,287.431458 1131.157715,287.787048 
	C1132.690063,288.755615 1134.177856,289.810516 1135.782104,290.640137 
	C1136.262451,290.888580 1137.067993,290.507751 1138.595459,290.305878 
M874.210571,283.002411 
	C875.917664,286.983521 877.152161,281.118622 878.992126,283.212708 
	C878.992126,284.084717 878.960999,285.386841 879.000793,286.686768 
	C879.040283,287.974396 879.151184,289.259827 879.230774,290.546204 
	C879.781250,290.562775 880.331787,290.579315 880.882263,290.595886 
	C881.669189,284.653687 882.456116,278.711487 883.420959,271.425934 
	C879.761169,276.021149 877.173462,279.270294 874.210571,283.002411 
M1111.046387,285.355438 
	C1109.682739,279.668762 1109.682739,279.668762 1117.920288,278.631409 
	C1114.618896,275.499603 1113.374268,275.539215 1107.335083,279.336731 
	C1108.286865,283.000977 1109.292603,286.872437 1110.298340,290.743896 
	C1110.878540,290.594299 1111.458862,290.444733 1112.039062,290.295135 
	C1111.780762,288.896973 1111.522461,287.498810 1111.046387,285.355438 
M855.587891,278.899872 
	C857.410278,278.899872 859.232727,278.899872 862.310425,278.899872 
	C857.509094,275.088898 854.254333,276.904205 850.269958,278.836273 
	C851.283875,282.888184 852.261108,286.793427 853.238342,290.698639 
	C853.833130,290.561371 854.427979,290.424103 855.022827,290.286835 
	C854.611267,288.294647 853.924866,286.309753 853.871704,284.308044 
	C853.825623,282.576355 854.498413,280.825500 855.587891,278.899872 
z"/>
<path fill="#9C070D" opacity="1.000000" stroke="none" 
	d="
M842.000000,342.998413 
	C865.998535,342.998627 889.502319,342.736938 912.991333,343.210052 
	C917.956482,343.310028 923.170898,345.504730 927.712830,347.825623 
	C931.774353,349.901001 932.999878,354.426971 932.999817,359.005890 
	C932.999512,414.002441 933.028076,468.999023 932.973022,523.995544 
	C932.963196,533.802368 925.418579,539.942688 913.494141,539.981995 
	C893.328979,540.048462 873.163391,540.001160 852.997986,540.001160 
	C818.333496,540.001221 783.668884,540.047974 749.004639,539.952637 
	C743.514282,539.937500 737.644714,539.576416 733.927979,534.951172 
	C731.581970,532.031677 729.227356,528.024719 729.208618,524.493164 
	C728.916016,469.164856 728.959167,413.834473 729.046509,358.504730 
	C729.061279,349.114410 736.842834,343.039307 748.505737,343.018433 
	C779.503723,342.963013 810.501892,342.998871 842.000000,342.998413 
M793.325134,395.799683 
	C794.320801,391.850128 796.020874,387.927338 796.172180,383.945709 
	C796.538879,374.294495 789.731262,366.434204 779.567749,363.783966 
	C772.120178,361.841919 762.091980,366.359741 757.835510,373.574463 
	C752.988647,381.789978 754.171631,392.305328 760.282043,398.948181 
	C768.690186,408.088989 784.557129,408.350250 793.325134,395.799683 
M755.695129,493.167633 
	C753.554504,500.953522 758.468262,512.701111 768.849792,516.574768 
	C778.488770,520.171448 790.004456,515.974792 794.772156,506.655487 
	C799.602112,497.214508 796.560364,485.506927 788.190186,479.704773 
	C775.573914,470.959259 758.902771,477.983032 755.695129,493.167633 
M904.513306,483.003601 
	C902.774292,481.748932 901.103455,480.384277 899.284851,479.258179 
	C890.162476,473.609619 878.780640,476.019043 871.889832,484.995331 
	C865.951782,492.730530 867.072510,505.780975 874.246399,512.435974 
	C882.201294,519.815430 895.069946,519.960449 902.815247,513.135132 
	C909.954895,506.843506 912.929810,493.946655 904.513306,483.003601 
M908.389282,389.650696 
	C911.320862,375.208679 898.785217,362.866333 887.204529,364.058899 
	C878.458130,364.959625 870.561829,369.885101 868.044067,378.017700 
	C865.164001,387.320251 868.405212,396.932648 875.725342,402.174591 
	C886.528687,409.910919 903.384033,405.649567 908.389282,389.650696 
z"/>
<path fill="#9C070D" opacity="1.000000" stroke="none" 
	d="
M1083.000000,342.997925 
	C1113.331665,342.998108 1143.163452,342.944489 1172.994751,343.047150 
	C1178.485229,343.066040 1184.354736,343.422729 1188.071655,348.047913 
	C1190.417725,350.967346 1192.772949,354.974091 1192.791504,358.505493 
	C1193.084229,413.834045 1193.039429,469.164703 1192.954590,524.494690 
	C1192.940430,533.735352 1185.290771,539.906433 1173.995483,539.968994 
	C1154.163940,540.078796 1134.331177,540.001587 1114.499023,540.001709 
	C1079.334351,540.002014 1044.169678,540.047913 1009.005249,539.953186 
	C1003.514893,539.938416 997.645386,539.577209 993.928406,534.952026 
	C991.582214,532.032593 989.226868,528.025818 989.208191,524.494385 
	C988.915527,469.165833 988.958618,413.835175 989.046021,358.505188 
	C989.060852,349.114197 996.841736,343.046539 1008.504700,343.017700 
	C1033.169678,342.956696 1057.834839,342.998352 1083.000000,342.997925 
M1090.592163,462.698425 
	C1105.957886,461.050079 1114.302368,450.442566 1111.290527,436.386719 
	C1108.957642,425.499237 1097.740601,418.658295 1086.211182,421.091400 
	C1075.575317,423.335846 1068.561279,434.258545 1070.530518,444.967255 
	C1072.526123,455.819916 1079.530884,460.924103 1090.592163,462.698425 
M1056.310791,386.182220 
	C1057.572754,374.112427 1047.928955,364.192596 1036.878418,363.483551 
	C1026.219849,362.799652 1015.869507,371.517059 1014.917297,381.662476 
	C1013.711853,394.505280 1021.450317,404.540710 1034.437012,405.639069 
	C1043.976318,406.445862 1054.717285,400.011505 1056.310791,386.182220 
M1129.766846,395.649048 
	C1130.067261,396.046478 1130.385376,396.431976 1130.665527,396.843231 
	C1135.465698,403.890778 1143.762329,407.600586 1151.853760,405.670410 
	C1160.473633,403.614197 1166.352539,397.995728 1168.311768,389.406219 
	C1170.183350,381.201233 1167.095215,374.300201 1160.825928,368.553284 
	C1154.195801,362.475525 1141.896729,362.777863 1134.940063,368.236908 
	C1127.749512,373.879517 1123.930786,384.601837 1129.766846,395.649048 
M1057.124756,496.528046 
	C1056.684082,494.266296 1056.463379,491.933868 1055.763794,489.755249 
	C1052.988770,481.113068 1043.336548,474.255249 1032.141968,476.282776 
	C1022.460999,478.036163 1014.790771,487.246155 1015.058777,497.220886 
	C1015.365845,508.651031 1024.956543,517.835632 1035.796997,517.968262 
	C1047.322021,518.109253 1056.231323,509.530426 1057.124756,496.528046 
M1151.093994,476.348694 
	C1143.754639,475.659271 1137.897217,478.397949 1133.006836,483.807709 
	C1127.663086,489.718994 1126.503540,498.628876 1130.335083,506.516815 
	C1134.543579,515.180725 1142.042603,519.054382 1152.477417,517.954651 
	C1159.575317,517.206604 1166.703125,510.937683 1168.745483,503.834778 
	C1172.112427,492.125061 1166.827271,479.513306 1151.093994,476.348694 
z"/>
<path fill="#4DCAA1" opacity="1.000000" stroke="none" 
	d="
M904.860352,167.955933 
	C897.440125,167.955933 890.019958,167.955933 882.328125,167.955933 
	C882.651428,165.148941 882.907959,162.922318 883.233704,160.094528 
	C869.771729,168.017105 856.588806,173.882065 841.903320,162.842514 
	C840.218628,162.104660 838.647827,161.174301 837.787354,161.618896 
	C834.859131,163.131866 832.381592,165.654953 829.356689,166.807983 
	C825.679932,168.209534 824.391785,170.595123 823.876831,174.151459 
	C822.121399,186.273743 816.902039,195.873093 804.417419,199.942398 
	C801.926453,199.963852 799.435181,200.022797 796.944641,199.999557 
	C790.289917,199.937439 784.724304,196.452972 782.611938,191.069824 
	C780.339905,185.279892 781.990906,178.033188 786.676025,173.628830 
	C788.104004,172.286392 789.704651,171.127670 790.737976,170.283661 
	C785.905029,167.663498 781.023376,165.016907 776.237488,162.422287 
	C771.257324,164.366547 765.666321,167.356079 759.706543,168.659897 
	C753.120239,170.100784 747.769409,166.871780 744.313721,160.455414 
	C738.893921,164.959579 733.791077,169.092194 726.522522,168.999466 
	C719.422180,168.908859 714.195679,165.694153 710.418823,160.855606 
	C704.992798,163.415924 700.159790,166.489288 694.879517,168.029190 
	C682.414917,171.664291 672.571960,163.853470 673.609802,150.818115 
	C674.305176,142.084595 676.686035,133.484802 678.322876,124.827118 
	C678.693665,122.865631 679.106689,120.912125 679.637817,118.268387 
	C680.020447,115.800491 680.143494,113.992073 680.531738,112.242516 
	C682.253235,104.484009 684.050903,96.742401 685.907593,88.749649 
	C685.974915,88.332428 685.955750,88.160248 686.054810,87.641434 
	C686.308105,86.577110 686.443054,85.859413 686.578003,85.141716 
	C687.006897,77.952011 691.276550,75.791176 697.915100,75.780190 
	C702.295044,75.772942 706.673218,74.678619 711.473389,74.447701 
	C706.859924,98.591682 701.785461,122.350685 696.818970,146.132263 
	C695.610352,151.919739 696.753784,152.860291 702.159790,151.092194 
	C705.895874,149.568619 706.921326,146.591690 707.224426,142.789474 
	C708.327393,128.955231 712.967102,116.562614 723.205994,106.788826 
	C730.476318,99.848846 739.040710,97.625793 748.910095,100.124382 
	C751.126648,100.685547 753.641296,100.012756 756.019104,100.004349 
	C761.991882,99.983231 767.964844,100.017197 774.395996,100.427231 
	C772.000244,114.347191 769.135010,127.866661 766.302368,141.392944 
	C765.791382,143.832809 765.118225,146.292374 765.048218,148.757858 
	C764.952332,152.134933 766.397766,153.933578 770.024536,152.039886 
	C771.919922,149.060410 774.731262,146.311234 775.548584,143.060715 
	C778.709351,130.489395 781.445007,117.798454 783.877197,105.063881 
	C784.682007,100.849998 786.384155,99.642326 790.452576,99.907051 
	C795.919128,100.262764 801.424622,100.019394 807.365845,100.430283 
	C807.032349,104.575272 806.252197,108.324394 805.459412,112.070847 
	C803.046387,123.474380 800.539001,134.859421 798.309387,146.298645 
	C797.975464,148.011688 798.934753,149.976776 799.295837,151.825287 
	C800.588318,151.346680 801.880798,150.868088 803.173279,150.389496 
	C804.762695,147.189301 807.003113,144.146698 807.822937,140.760178 
	C810.591431,129.324402 813.061523,117.804840 815.212219,106.236725 
	C816.079956,101.569466 817.658020,99.343277 822.834534,99.876877 
	C827.920410,100.401115 833.102905,99.987167 838.769043,100.395721 
	C835.433655,119.342865 831.572327,137.879211 827.461670,157.612076 
	C833.432861,154.082443 836.348511,149.980011 836.503113,144.788605 
	C836.738708,136.883133 839.006042,129.558350 841.409729,122.198425 
	C842.465759,120.323708 843.497986,118.435059 844.581787,116.576515 
	C852.278381,103.378143 863.382812,96.865707 879.585938,99.330956 
	C887.131531,102.528275 890.238281,106.482185 889.356323,113.770409 
	C888.761475,118.686630 887.301758,124.129631 884.415222,127.975960 
	C880.874695,132.693771 875.442505,135.991959 870.866333,139.946930 
	C870.904602,139.989990 870.994751,139.918320 870.613037,139.805176 
	C869.295410,140.110214 868.359558,140.528427 867.391541,140.854828 
	C867.359436,140.763031 867.173523,140.820099 866.748169,140.853821 
	C864.298889,141.388321 862.274963,141.889099 860.390442,142.355408 
	C859.393738,151.358154 860.620117,153.419113 867.381714,153.929749 
	C880.580994,153.050583 888.512573,144.072418 890.045471,128.623840 
	C891.726196,120.868141 893.246277,113.457451 894.766357,106.046768 
	C895.249512,100.901306 898.042297,99.271240 903.074646,99.895096 
	C906.977295,100.378899 911.000122,99.810860 914.944214,100.080482 
	C916.583557,100.192558 918.157166,101.267166 920.128540,102.050209 
	C924.000488,101.455956 928.458740,100.771706 933.592834,100.325386 
	C936.547424,103.405540 939.847290,105.921082 940.883728,109.160782 
	C942.802307,115.157753 939.252197,119.576073 934.417542,122.930748 
	C930.135315,122.884979 925.369568,124.075661 923.025635,117.890701 
	C921.636963,116.616356 919.693420,115.228813 919.389832,115.524574 
	C917.616211,117.252403 915.356628,119.175072 914.847412,121.395660 
	C911.300232,136.865723 908.142761,152.425171 904.860352,167.955933 
M746.518188,111.595840 
	C744.485413,112.518715 741.738037,112.891960 740.536621,114.454208 
	C733.056519,124.180367 729.956360,135.401199 730.710022,147.593948 
	C730.957886,151.603226 733.240601,153.218460 737.844299,150.935455 
	C739.597351,148.224625 742.153625,145.729691 742.951233,142.762070 
	C745.240295,134.245285 746.940063,125.560005 748.558716,116.882591 
	C748.843079,115.358337 747.614380,113.551834 746.518188,111.595840 
M866.554443,129.079422 
	C873.820129,123.428841 876.841431,115.929459 873.904358,109.646126 
	C866.266479,114.700081 864.501404,122.640999 861.787292,131.251007 
	C863.862305,130.337875 864.899414,129.881485 866.554443,129.079422 
M794.191345,180.787643 
	C794.220581,182.383011 794.249756,183.978394 794.278992,185.573761 
	C795.619995,184.662094 797.333679,184.012100 798.205383,182.770859 
	C799.237305,181.301392 799.543030,179.321915 800.163452,177.563492 
	C799.865967,177.354858 799.568481,177.146225 799.270935,176.937576 
	C797.736206,178.038345 796.201416,179.139114 794.191345,180.787643 
z"/>
<path fill="#4DC9A1" opacity="1.000000" stroke="none" 
	d="
M1302.422363,167.944916 
	C1299.464111,168.262878 1296.512817,168.720566 1293.546021,168.870972 
	C1286.456665,169.230347 1284.045166,168.299942 1276.084839,162.656281 
	C1272.127686,164.561035 1268.462769,166.983322 1264.434448,168.143341 
	C1251.222412,171.947891 1240.821533,163.182098 1242.544678,149.578613 
	C1243.500366,142.033478 1245.559082,134.631256 1247.022949,127.145515 
	C1247.496948,124.721680 1247.660034,122.237038 1247.913452,119.031494 
	C1246.598145,113.558647 1243.607910,115.459831 1242.245361,117.526237 
	C1240.030029,120.886002 1238.183228,124.750252 1237.265625,128.656403 
	C1234.202881,141.694839 1231.621704,154.846436 1228.856079,167.954681 
	C1207.441406,168.320267 1207.441406,168.320267 1205.725830,165.814804 
	C1201.035278,166.874191 1196.573242,168.540039 1192.039429,168.766220 
	C1183.134644,169.210480 1176.622314,163.204712 1176.228271,154.320267 
	C1176.024536,149.727570 1176.671875,145.014420 1177.543945,140.472687 
	C1179.898193,128.213531 1182.579224,116.017151 1185.221924,103.136200 
	C1185.371582,101.936676 1185.429810,101.396797 1185.488037,100.856918 
	C1192.963257,100.582237 1200.438477,100.307549 1208.366211,100.430054 
	C1205.636963,115.856613 1202.399658,130.874741 1199.346436,145.930206 
	C1198.984009,147.716888 1199.628052,149.707642 1199.805420,151.603790 
	C1201.488892,151.385406 1203.172241,151.167023 1204.855713,150.948654 
	C1206.865112,148.269852 1209.930298,145.862000 1210.699463,142.864944 
	C1213.915771,130.331558 1216.590698,117.650948 1219.132446,104.957901 
	C1219.894165,101.154823 1221.314209,99.568367 1225.314453,99.912682 
	C1229.436279,100.267471 1233.924072,99.005554 1237.699341,100.198853 
	C1245.308594,102.604012 1252.577881,97.518623 1260.620117,100.308220 
	C1267.805542,103.191116 1270.530884,108.371178 1270.427612,115.081543 
	C1270.369263,118.867912 1269.888062,122.691132 1269.167603,126.414597 
	C1267.813965,133.410492 1265.920776,140.306229 1264.694946,147.321045 
	C1263.908813,151.819366 1265.264648,152.595337 1270.066772,151.197693 
	C1270.758545,149.967743 1271.543213,148.779678 1272.120605,147.498169 
	C1273.002686,145.540924 1273.242676,143.041916 1274.621094,141.601059 
	C1284.672119,131.095016 1288.273315,117.444275 1292.882812,104.352425 
	C1294.427368,99.965515 1296.288574,97.817276 1301.153442,97.747253 
	C1306.435791,97.671211 1311.704102,96.616783 1317.417236,96.482742 
	C1318.740601,112.039726 1319.604248,127.104218 1320.517456,142.165710 
	C1321.097656,151.734711 1317.824707,159.425964 1309.534424,164.575912 
	C1307.320435,165.951248 1304.801392,166.835297 1302.422363,167.944916 
M1290.963135,147.203049 
	C1288.786865,149.001892 1286.610474,150.800735 1284.459717,152.578552 
	C1288.706421,156.083847 1296.021606,154.495010 1296.741699,148.989395 
	C1297.692871,141.717804 1296.975952,134.228012 1296.975952,126.831993 
	C1296.335571,126.817261 1295.695312,126.802528 1295.054932,126.787804 
	C1293.580811,131.797943 1288.413452,135.872162 1291.860229,142.186325 
	C1292.423828,143.218445 1291.535522,145.043076 1290.963135,147.203049 
z"/>
<path fill="#4DC9A1" opacity="1.000000" stroke="none" 
	d="
M1160.368408,118.186928 
	C1165.319824,104.064346 1170.574097,90.037247 1175.071533,75.771507 
	C1176.833008,70.183914 1179.371948,67.625175 1185.224365,68.686859 
	C1186.840576,68.980064 1188.544189,68.792480 1190.601196,69.262825 
	C1178.828125,102.434280 1166.661621,135.168427 1154.494995,167.902573 
	C1147.254395,167.902573 1140.013794,167.902573 1132.202148,167.902573 
	C1131.822632,154.931137 1131.456299,142.407562 1131.049683,128.965088 
	C1131.009521,123.607628 1131.009521,119.169052 1131.009521,114.730469 
	C1130.650635,114.723480 1130.291748,114.716484 1129.932983,114.709496 
	C1123.287598,132.469757 1116.642212,150.230026 1109.996826,167.990295 
	C1102.876221,167.990280 1095.755493,167.990280 1087.808594,167.990280 
	C1087.169800,141.089874 1086.537964,114.479355 1085.873047,87.039696 
	C1085.766968,85.003876 1085.693848,83.797188 1085.611206,82.434174 
	C1074.496582,87.586456 1068.474976,101.125786 1071.783325,112.633675 
	C1072.274414,114.341690 1072.421997,116.148491 1072.728516,117.909592 
	C1056.469604,117.846039 1049.573486,106.847664 1057.626343,92.588219 
	C1066.428223,77.002197 1081.103882,70.105171 1098.341553,68.081810 
	C1101.460815,67.715683 1104.666016,68.082359 1108.401855,68.543739 
	C1109.418823,90.456635 1109.865479,111.936501 1110.312134,133.416367 
	C1110.628174,133.483017 1110.944092,133.549667 1111.260132,133.616333 
	C1112.979614,128.145004 1114.699097,122.673691 1116.418457,117.202354 
	C1121.482544,102.761032 1126.711548,88.374107 1131.504761,73.843475 
	C1132.848145,69.771217 1134.817505,68.312744 1138.985840,68.645966 
	C1143.453857,69.003143 1147.969482,68.765747 1152.970215,69.316475 
	C1153.475952,91.060066 1153.475952,112.275017 1153.475952,133.489975 
	C1154.169922,133.553467 1154.863770,133.616959 1155.557739,133.680450 
	C1157.161255,128.515945 1158.764893,123.351440 1160.368408,118.186928 
z"/>
<path fill="#4DC9A1" opacity="1.000000" stroke="none" 
	d="
M652.476074,130.933640 
	C651.212646,131.009369 649.949158,131.085098 647.945068,131.265289 
	C644.419800,131.127090 643.061462,132.291046 642.492310,135.159790 
	C640.322327,146.098602 637.920105,156.991364 635.604675,167.901321 
	C628.200195,167.901321 620.795715,167.901321 612.601624,167.901321 
	C616.164917,151.076797 619.583984,134.932968 623.191528,118.068741 
	C625.725342,106.353638 628.070679,95.358940 630.416016,84.364235 
	C629.859253,84.173416 629.302551,83.982597 628.745789,83.791779 
	C623.499573,86.969093 619.931885,91.859467 619.312378,97.856590 
	C618.630798,104.453140 619.500488,111.209961 619.694336,117.896950 
	C618.030762,117.864502 616.351379,117.968163 614.706238,117.776878 
	C605.921631,116.755447 601.384949,111.409279 601.762695,102.551926 
	C602.079346,95.129890 605.537048,89.103096 610.729004,84.150002 
	C624.792480,70.733353 641.367065,65.328941 661.332764,69.373833 
	C680.634644,77.321846 686.465393,93.883911 676.900024,111.733139 
	C672.204773,120.494545 664.486084,125.705589 655.892212,129.936142 
	C655.892212,129.936142 655.985474,129.974701 655.623535,129.924835 
	C654.333130,130.227859 653.404602,130.580750 652.476074,130.933640 
M654.865601,79.214775 
	C647.472290,76.889580 640.496765,78.197647 633.801819,82.050591 
	C640.595825,81.358597 647.389771,80.666603 654.102844,80.785561 
	C651.299011,94.135422 648.495239,107.485283 645.691406,120.835144 
	C646.137085,121.058044 646.582825,121.280937 647.028503,121.503838 
	C648.336975,120.615204 649.645447,119.726562 651.545837,118.552193 
	C657.886658,112.819069 661.288025,105.511757 662.471863,97.206581 
	C663.313782,91.300293 662.904663,85.527229 657.621643,80.659058 
	C656.923828,80.333122 656.226013,80.007187 654.865601,79.214775 
M631.552185,82.470619 
	C631.552185,82.470619 631.511169,82.469917 631.552185,82.470619 
z"/>
<path fill="#4DC9A1" opacity="1.000000" stroke="none" 
	d="
M989.923035,145.228973 
	C994.918579,146.157547 999.902222,147.157196 1004.913025,147.994476 
	C1009.816895,148.813889 1013.911682,147.184052 1017.559387,143.832733 
	C1018.679077,142.804047 1020.537842,142.579773 1022.483948,142.423889 
	C1027.107666,156.353943 1024.596069,162.240631 1011.779663,168.946838 
	C1005.263306,168.278931 998.607300,168.227936 992.264709,166.792328 
	C983.664124,164.845642 975.380798,163.280945 967.091797,167.709808 
	C964.015198,169.353653 962.687012,167.901474 962.107239,164.677200 
	C960.530823,155.910797 963.488831,148.449387 969.015503,142.107498 
	C975.445740,134.728943 982.683838,128.058243 989.197083,120.746933 
	C993.586914,115.819199 997.663147,110.532097 1001.265320,105.005409 
	C1004.767456,99.632301 1005.212830,93.266861 1003.780884,87.176682 
	C1003.152344,84.503334 1000.520325,82.301079 998.138550,79.738441 
	C993.966675,79.360458 991.248840,80.640747 989.950012,84.013947 
	C988.170532,88.635521 989.366272,92.850121 992.328674,96.578415 
	C996.028809,101.235199 995.954956,101.967804 990.861511,104.948418 
	C989.728699,105.611313 988.592468,106.268433 987.457825,106.928207 
	C975.471313,107.190430 969.516235,99.165642 972.565125,86.859612 
	C975.023376,76.937927 985.366089,68.784195 996.612793,68.129807 
	C1000.255920,67.917824 1003.928528,68.213516 1008.156677,68.431221 
	C1009.133118,68.681023 1009.540527,68.776588 1009.947937,68.872154 
	C1010.274719,68.968140 1010.601562,69.064117 1011.446167,69.380478 
	C1023.873230,75.020546 1028.924805,83.118446 1027.938599,95.580658 
	C1027.143311,105.629440 1021.171082,112.810951 1014.005798,119.019005 
	C1007.085388,125.014870 999.693970,130.463730 992.634399,136.303879 
	C989.629272,138.789856 986.942017,141.660004 983.192688,145.228973 
	C986.374939,145.228973 988.148987,145.228973 989.923035,145.228973 
z"/>
<path fill="#4DCAA2" opacity="1.000000" stroke="none" 
	d="
M910.055481,684.980042 
	C910.055481,673.537109 910.055481,662.094177 910.055481,649.944763 
	C943.960144,649.944763 977.505493,649.944763 1011.525574,650.462769 
	C1012.000366,662.229492 1012.000366,673.478210 1012.000366,684.557800 
	C1011.040588,684.802368 1010.729614,684.950928 1010.418579,684.951050 
	C976.964233,684.967896 943.509827,684.973633 910.055481,684.980042 
M922.471008,670.926208 
	C925.571777,663.614197 926.426208,673.337219 928.881042,671.665649 
	C928.389954,670.444336 927.382263,669.149658 927.456177,667.920105 
	C927.856689,661.257446 927.745850,661.079895 920.759705,662.777466 
	C921.156372,665.598572 921.566772,668.516602 922.471008,670.926208 
M973.844360,668.240295 
	C976.678101,668.384338 978.753845,667.057556 977.597717,664.297180 
	C976.973450,662.806702 974.223389,662.206665 971.779846,660.839905 
	C971.779846,665.432495 971.779846,668.402710 971.779846,671.372925 
	C972.004333,671.380737 972.228760,671.388611 972.453247,671.396423 
	C972.699585,670.471558 972.945984,669.546631 973.844360,668.240295 
M981.891113,665.033447 
	C982.487366,665.744934 983.083679,666.456421 983.282166,666.693237 
	C982.280945,668.088684 981.328674,669.415833 980.376465,670.742920 
	C981.998657,671.173645 983.620789,671.604309 986.662048,672.411743 
	C984.840027,668.853943 987.493408,665.063965 981.891113,665.033447 
M962.744568,666.381775 
	C963.560547,668.053284 964.376587,669.724731 965.274536,671.564026 
	C967.369751,667.092529 964.952393,665.066711 960.667725,663.526062 
	C960.889465,665.879639 961.097046,668.082764 961.383301,671.120422 
	C961.777466,669.122742 961.999268,667.998596 962.744568,666.381775 
z"/>
<path fill="#4DC9A1" opacity="1.000000" stroke="none" 
	d="
M1196.172241,73.105690 
	C1198.795776,73.096184 1201.419189,73.086678 1204.646851,73.318176 
	C1209.986084,75.739494 1212.685913,79.356232 1212.940430,84.626808 
	C1213.237305,90.772324 1209.314697,94.110565 1204.637085,96.918312 
	C1198.734375,97.578590 1193.472534,96.560989 1189.516113,90.656281 
	C1186.912354,81.606445 1188.457275,78.444252 1196.172241,73.105690 
z"/>
<path fill="#263137" opacity="1.000000" stroke="none" 
	d="
M1195.962280,72.875763 
	C1188.457275,78.444252 1186.912354,81.606445 1189.263916,90.445618 
	C1188.005981,93.888039 1186.672241,96.929802 1185.413330,100.414246 
	C1185.429810,101.396797 1185.371582,101.936676 1185.188354,102.730469 
	C1183.716675,105.141846 1181.969238,107.147758 1181.087280,109.480873 
	C1174.287109,127.468605 1167.628784,145.510254 1160.997314,163.561188 
	C1159.986572,166.312729 1158.685303,168.357254 1154.918579,167.918915 
	C1166.661621,135.168427 1178.828125,102.434280 1191.070312,69.333336 
	C1193.941772,68.615105 1195.815918,69.417519 1195.962280,72.875763 
z"/>
<path fill="#263036" opacity="1.000000" stroke="none" 
	d="
M701.917419,150.803299 
	C696.753784,152.860291 695.610352,151.919739 696.818970,146.132263 
	C701.785461,122.350685 706.859924,98.591682 711.899658,74.433823 
	C713.339661,74.159836 714.774719,74.276398 716.828491,74.443207 
	C714.217834,86.978546 711.735596,99.003677 709.204834,111.018578 
	C706.735229,122.743195 704.188110,134.451553 701.755859,146.183823 
	C701.467834,147.573212 701.689636,149.068314 701.917419,150.803299 
z"/>
<path fill="#263137" opacity="1.000000" stroke="none" 
	d="
M989.991699,144.874130 
	C988.148987,145.228973 986.374939,145.228973 983.192688,145.228973 
	C986.942017,141.660004 989.629272,138.789856 992.634399,136.303879 
	C999.693970,130.463730 1007.085388,125.014870 1014.005798,119.019005 
	C1021.171082,112.810951 1027.143311,105.629440 1027.938599,95.580658 
	C1028.924805,83.118446 1023.873230,75.020546 1011.698608,69.329941 
	C1028.687378,69.743317 1038.602905,89.497742 1030.036011,105.542992 
	C1024.053223,116.748169 1013.562073,123.078201 1004.344482,130.874664 
	C999.326172,135.119202 994.805420,139.951874 989.991699,144.874130 
z"/>
<path fill="#263036" opacity="1.000000" stroke="none" 
	d="
M1302.869385,167.943909 
	C1304.801392,166.835297 1307.320435,165.951248 1309.534424,164.575912 
	C1317.824707,159.425964 1321.097656,151.734711 1320.517456,142.165710 
	C1319.604248,127.104218 1318.740601,112.039726 1317.858276,96.511703 
	C1321.775513,95.465118 1322.907104,97.188019 1323.089355,101.059692 
	C1323.749268,115.084267 1325.114868,129.078552 1325.638306,143.105759 
	C1326.116333,155.913727 1317.644287,167.135422 1302.869385,167.943909 
z"/>
<path fill="#263238" opacity="1.000000" stroke="none" 
	d="
M1160.074219,117.861435 
	C1158.764893,123.351440 1157.161255,128.515945 1155.557739,133.680450 
	C1154.863770,133.616959 1154.169922,133.553467 1153.475952,133.489975 
	C1153.475952,112.275017 1153.475952,91.060066 1153.463623,69.380753 
	C1158.096436,68.535629 1159.019897,71.321754 1159.002075,75.186325 
	C1158.946167,87.351204 1158.961792,99.516785 1159.038940,111.681526 
	C1159.051270,113.634499 1159.521362,115.584549 1160.074219,117.861435 
z"/>
<path fill="#263238" opacity="1.000000" stroke="none" 
	d="
M841.135498,121.938164 
	C839.006042,129.558350 836.738708,136.883133 836.503113,144.788605 
	C836.348511,149.980011 833.432861,154.082443 827.461670,157.612076 
	C831.572327,137.879211 835.433655,119.342865 839.250488,100.384247 
	C843.238037,99.640076 844.447632,101.191185 843.517761,105.285545 
	C842.294250,110.672905 841.716614,116.206940 841.135498,121.938164 
z"/>
<path fill="#263036" opacity="1.000000" stroke="none" 
	d="
M1116.111572,116.882812 
	C1114.699097,122.673691 1112.979614,128.145004 1111.260132,133.616333 
	C1110.944092,133.549667 1110.628174,133.483017 1110.312134,133.416367 
	C1109.865479,111.936501 1109.418823,90.456635 1108.851807,68.526100 
	C1113.009155,67.398750 1114.055054,69.468994 1114.090332,73.455536 
	C1114.205933,86.551048 1114.646973,99.644081 1115.025879,112.736244 
	C1115.062988,114.018356 1115.534546,115.287888 1116.111572,116.882812 
z"/>
<path fill="#48BB95" opacity="1.000000" stroke="none" 
	d="
M830.092407,301.754211 
	C830.761780,297.506500 831.283264,293.650970 831.827759,289.625702 
	C821.397766,290.581299 817.328613,286.409241 819.606079,276.635284 
	C820.430542,279.741272 820.518188,282.175354 821.681763,283.871124 
	C822.877380,285.613617 825.123718,286.635132 826.910217,287.972137 
	C828.046814,286.207336 829.488403,284.558380 830.217407,282.638794 
	C830.743042,281.254944 830.319885,279.510803 830.319885,277.927338 
	C830.753845,277.842957 831.187805,277.758575 831.621704,277.674164 
	C832.267212,280.137146 832.912659,282.600098 833.628235,285.330475 
	C834.930176,277.455444 837.630432,273.458984 841.519897,274.372375 
	C843.228455,274.773590 845.631775,277.294403 845.651978,278.879120 
	C845.719360,284.176239 840.962219,283.804169 836.577454,284.726471 
	C839.739441,289.703156 844.310364,288.805176 848.771973,288.630371 
	C845.113342,292.055176 843.939209,291.988129 834.190918,287.870331 
	C833.722412,292.208984 833.809448,296.571014 832.614075,300.547546 
	C831.889709,302.957001 829.316895,306.330505 827.331909,306.504547 
	C823.883545,306.806946 820.428589,304.754913 819.485107,300.037415 
	C823.308044,300.291199 825.494629,307.712341 830.092407,301.754211 
M843.688843,279.433838 
	C842.540039,278.413574 841.391235,277.393311 840.242493,276.373016 
	C838.908752,277.898376 837.574951,279.423737 836.241211,280.949097 
	C836.662415,281.486603 837.083679,282.024109 837.504883,282.561615 
	C839.446899,281.730560 841.388855,280.899475 843.688843,279.433838 
z"/>
<path fill="#263238" opacity="1.000000" stroke="none" 
	d="
M656.305054,129.946671 
	C664.486084,125.705589 672.204773,120.494545 676.900024,111.733139 
	C686.465393,93.883911 680.634644,77.321846 661.724609,69.320763 
	C670.117554,69.710342 677.049133,73.438202 682.102844,80.602989 
	C683.201172,82.160149 684.578186,83.520737 686.202393,85.056786 
	C686.443054,85.859413 686.308105,86.577110 685.943237,87.741379 
	C685.553528,88.478508 685.589417,88.747421 685.821045,88.994690 
	C684.050903,96.742401 682.253235,104.484009 680.531738,112.242516 
	C680.143494,113.992073 680.020447,115.800491 679.633057,117.851852 
	C677.712830,119.196068 675.993835,120.386635 674.145935,121.322800 
	C668.362732,124.252518 662.530884,127.086266 656.305054,129.946671 
z"/>
<path fill="#48BB95" opacity="1.000000" stroke="none" 
	d="
M1083.799194,290.489044 
	C1077.149048,288.681396 1074.981934,284.646973 1076.778931,276.768433 
	C1077.656616,279.869415 1077.850830,282.442780 1079.085205,284.338867 
	C1080.134399,285.950348 1082.383057,286.780853 1084.101074,287.956909 
	C1085.292725,286.200989 1086.822632,284.575378 1087.565430,282.646576 
	C1088.125000,281.193268 1087.676025,279.351532 1088.777954,277.583557 
	C1089.326172,279.390808 1089.874268,281.198059 1090.448853,283.092224 
	C1092.182129,276.900177 1095.518799,273.235352 1098.946167,274.410919 
	C1100.567871,274.967194 1102.664917,277.289764 1102.674316,278.823547 
	C1102.707031,284.150177 1098.026001,283.821686 1094.399902,284.539001 
	C1096.128662,288.596710 1096.945068,288.908691 1105.479980,288.844360 
	C1101.739258,292.532745 1098.442505,292.076202 1091.279541,286.865295 
	C1090.764160,291.760956 1090.748901,296.775665 1089.509766,301.467041 
	C1088.952515,303.576782 1085.965576,306.458923 1084.054077,306.479584 
	C1080.843140,306.514221 1077.397217,304.770538 1076.904419,300.406555 
	C1077.504395,300.359222 1077.916748,300.194153 1078.093140,300.331787 
	C1085.678833,306.247589 1086.869263,305.746704 1088.312988,295.874939 
	C1088.617310,293.793976 1088.686157,291.678558 1088.924927,288.849823 
	C1086.847534,289.524323 1085.497192,289.962738 1083.799194,290.489044 
M1100.734131,278.709625 
	C1099.492065,277.960236 1097.700195,276.291199 1097.115112,276.640930 
	C1095.606079,277.542816 1094.630737,279.337402 1093.442139,280.775391 
	C1093.944702,281.393127 1094.447266,282.010864 1094.949829,282.628632 
	C1096.861450,281.567749 1098.772949,280.506897 1100.734131,278.709625 
z"/>
<path fill="#000000" opacity="1.000000" stroke="none" 
	d="
M909.936646,685.288086 
	C943.509827,684.973633 976.964233,684.967896 1010.418579,684.951050 
	C1010.729614,684.950928 1011.040588,684.802368 1012.000366,684.557800 
	C1012.000366,673.478210 1012.000366,662.229492 1011.990234,650.518127 
	C1012.649475,650.594971 1013.896973,651.128418 1013.902710,651.674988 
	C1014.014954,662.333923 1013.931396,672.994812 1014.005493,683.654419 
	C1014.033997,687.759644 1011.129761,686.976562 1008.776489,686.979248 
	C981.292969,687.010498 953.809509,686.999695 926.325989,686.999878 
	C921.828674,686.999939 917.328613,687.083069 912.836182,686.934814 
	C911.816406,686.901123 910.823181,686.063660 909.936646,685.288086 
z"/>
<path fill="#263036" opacity="1.000000" stroke="none" 
	d="
M905.273804,167.962677 
	C908.142761,152.425171 911.300232,136.865723 914.847412,121.395660 
	C915.356628,119.175072 917.616211,117.252403 919.389832,115.524574 
	C919.693420,115.228813 921.636963,116.616356 922.829834,117.587845 
	C921.631104,119.656944 919.749878,121.213234 919.328247,123.096329 
	C916.363220,136.338486 913.670044,149.642044 910.960571,162.940353 
	C910.350586,165.934128 909.579346,168.525848 905.273804,167.962677 
z"/>
<path fill="#263036" opacity="1.000000" stroke="none" 
	d="
M1229.269775,167.961700 
	C1231.621704,154.846436 1234.202881,141.694839 1237.265625,128.656403 
	C1238.183228,124.750252 1240.030029,120.886002 1242.245361,117.526237 
	C1243.607910,115.459831 1246.598145,113.558647 1247.816528,118.612343 
	C1246.141113,121.148430 1243.620361,123.141113 1243.030518,125.597519 
	C1240.056641,137.979538 1237.552490,150.475418 1234.962769,162.947800 
	C1234.341064,165.941513 1233.569580,168.524979 1229.269775,167.961700 
z"/>
<path fill="#263137" opacity="1.000000" stroke="none" 
	d="
M770.017944,151.598099 
	C766.397766,153.933578 764.952332,152.134933 765.048218,148.757858 
	C765.118225,146.292374 765.791382,143.832809 766.302368,141.392944 
	C769.135010,127.866661 772.000244,114.347191 774.855652,100.435112 
	C776.295654,100.144226 777.734314,100.243629 779.898254,100.393135 
	C778.046936,109.185898 776.193542,117.493797 774.568481,125.846123 
	C772.931335,134.259872 771.520996,142.717758 770.017944,151.598099 
z"/>
<path fill="#263036" opacity="1.000000" stroke="none" 
	d="
M1270.044434,150.733643 
	C1265.264648,152.595337 1263.908813,151.819366 1264.694946,147.321045 
	C1265.920776,140.306229 1267.813965,133.410492 1269.167603,126.414597 
	C1269.888062,122.691132 1270.369263,118.867912 1270.427612,115.081543 
	C1270.530884,108.371178 1267.805542,103.191116 1261.015869,100.295364 
	C1269.823853,100.150528 1275.402100,105.187744 1274.871948,114.104774 
	C1274.395630,122.118622 1272.622803,130.052353 1271.495361,138.031830 
	C1270.920776,142.099289 1270.508057,146.189621 1270.044434,150.733643 
z"/>
<path fill="#263036" opacity="1.000000" stroke="none" 
	d="
M1204.653320,150.623199 
	C1203.172241,151.167023 1201.488892,151.385406 1199.805420,151.603790 
	C1199.628052,149.707642 1198.984009,147.716888 1199.346436,145.930206 
	C1202.399658,130.874741 1205.636963,115.856613 1208.824097,100.439201 
	C1210.260986,100.147430 1211.692627,100.243706 1213.797974,100.385284 
	C1211.911987,109.421501 1210.155640,117.962410 1208.340454,126.490799 
	C1207.066040,132.478806 1205.610229,138.430298 1204.452271,144.439865 
	C1204.089478,146.322662 1204.431519,148.341293 1204.653320,150.623199 
z"/>
<path fill="#263036" opacity="1.000000" stroke="none" 
	d="
M803.133179,149.938538 
	C801.880798,150.868088 800.588318,151.346680 799.295837,151.825287 
	C798.934753,149.976776 797.975464,148.011688 798.309387,146.298645 
	C800.539001,134.859421 803.046387,123.474380 805.459412,112.070847 
	C806.252197,108.324394 807.032349,104.575272 807.823730,100.439346 
	C809.263000,100.148094 810.696838,100.244858 812.827942,100.388687 
	C810.847046,109.771103 808.896362,118.628418 807.124634,127.521416 
	C805.670349,134.821457 804.428894,142.163910 803.133179,149.938538 
z"/>
<path fill="#263137" opacity="1.000000" stroke="none" 
	d="
M1110.394043,167.985870 
	C1116.642212,150.230026 1123.287598,132.469757 1129.932983,114.709496 
	C1130.291748,114.716484 1130.650635,114.723480 1131.009521,114.730469 
	C1131.009521,119.169052 1131.009521,123.607628 1130.942871,128.504288 
	C1128.528931,133.988525 1125.980347,138.932465 1123.885620,144.061798 
	C1121.307495,150.374512 1119.100952,156.839203 1116.747681,163.243362 
	C1115.719604,166.041153 1114.484985,168.548920 1110.394043,167.985870 
z"/>
<path fill="#2C3A3E" opacity="1.000000" stroke="none" 
	d="
M620.107056,117.919281 
	C619.500488,111.209961 618.630798,104.453140 619.312378,97.856590 
	C619.931885,91.859467 623.499573,86.969093 628.745789,83.791779 
	C629.302551,83.982597 629.859253,84.173416 630.416016,84.364235 
	C628.070679,95.358940 625.725342,106.353638 623.188354,117.673965 
	C622.171082,117.980270 621.345459,117.960945 620.107056,117.919281 
z"/>
<path fill="#263137" opacity="1.000000" stroke="none" 
	d="
M804.855835,199.942780 
	C816.902039,195.873093 822.121399,186.273743 823.876831,174.151459 
	C824.391785,170.595123 825.679932,168.209534 829.356689,166.807983 
	C832.381592,165.654953 834.859131,163.131866 837.787354,161.618896 
	C838.647827,161.174301 840.218628,162.104660 841.586792,162.678604 
	C839.073181,164.336365 836.155334,165.372482 833.884644,167.208862 
	C831.882202,168.828232 830.136292,171.140656 829.117859,173.508667 
	C827.757751,176.670776 827.368530,180.234421 826.283875,183.534058 
	C822.960571,193.643768 815.557739,198.651428 804.855835,199.942780 
z"/>
<path fill="#263238" opacity="1.000000" stroke="none" 
	d="
M894.445618,105.964081 
	C893.246277,113.457451 891.726196,120.868141 889.719299,128.704865 
	C887.595703,130.495346 886.123047,132.159149 884.289429,133.164658 
	C879.892578,135.575653 875.326111,137.677338 870.828125,139.903885 
	C875.442505,135.991959 880.874695,132.693771 884.415222,127.975960 
	C887.301758,124.129631 888.761475,118.686630 889.356323,113.770409 
	C890.238281,106.482185 887.131531,102.528275 879.981079,99.315613 
	C886.169983,97.861473 889.766968,102.675835 894.445618,105.964081 
z"/>
<path fill="#263137" opacity="1.000000" stroke="none" 
	d="
M636.040710,167.924301 
	C637.920105,156.991364 640.322327,146.098602 642.492310,135.159790 
	C643.061462,132.291046 644.419800,131.127090 647.586914,131.398254 
	C645.641174,142.738083 643.422363,154.074677 640.818909,165.322235 
	C640.552979,166.470734 637.979431,167.085068 636.040710,167.924301 
z"/>
<path fill="#263238" opacity="1.000000" stroke="none" 
	d="
M1073.142334,117.923836 
	C1072.421997,116.148491 1072.274414,114.341690 1071.783325,112.633675 
	C1068.474976,101.125786 1074.496582,87.586456 1085.611206,82.434174 
	C1085.693848,83.797188 1085.766968,85.003876 1085.769531,86.577682 
	C1083.274414,89.405487 1079.991577,91.462433 1078.604736,94.411186 
	C1075.747803,100.485336 1074.752686,107.128632 1077.116699,113.754387 
	C1078.443115,117.472183 1076.679688,118.194283 1073.142334,117.923836 
z"/>
<path fill="#48BB95" opacity="1.000000" stroke="none" 
	d="
M1071.281250,290.585205 
	C1066.612915,291.517212 1062.597534,291.308899 1059.471558,287.570007 
	C1058.752319,288.750702 1058.118774,289.790985 1057.485107,290.831238 
	C1057.187988,290.769867 1056.890869,290.708496 1056.593750,290.647125 
	C1056.593750,284.953613 1056.593750,279.260101 1056.593750,273.566589 
	C1057.013550,273.503662 1057.433228,273.440765 1057.853027,273.377838 
	C1058.300415,276.895813 1058.747803,280.413818 1059.126953,283.394684 
	C1062.544067,282.311615 1066.007446,281.213898 1070.753174,279.709747 
	C1068.087524,278.423981 1066.046265,277.439423 1064.145508,276.522614 
	C1067.128052,274.259216 1069.782715,275.052368 1072.440796,279.157166 
	C1075.744019,284.258301 1075.467773,288.327820 1071.281250,290.585205 
M1062.870117,287.661469 
	C1066.067017,287.902252 1069.263916,288.143066 1072.460693,288.383881 
	C1072.647827,287.520386 1072.834839,286.656860 1073.021851,285.793335 
	C1070.493164,284.912781 1068.003296,283.620941 1065.414429,283.375427 
	C1064.511841,283.289825 1063.364258,285.787476 1062.870117,287.661469 
z"/>
<path fill="#48BB95" opacity="1.000000" stroke="none" 
	d="
M799.960754,273.265991 
	C800.758728,276.841827 801.556763,280.417664 802.222900,283.402863 
	C805.496033,282.342529 808.957581,281.221161 813.646240,279.702240 
	C811.101562,278.435760 809.075500,277.427368 806.555725,276.173279 
	C809.742493,273.959717 812.087158,275.383484 814.192627,277.532257 
	C817.282532,280.685669 818.797546,287.460052 816.990601,289.422638 
	C814.387451,292.250122 806.610779,291.283783 802.583740,287.716797 
	C801.525085,288.621368 800.480713,289.513733 799.535278,289.759796 
	C799.743042,283.830994 799.851929,278.548492 799.960754,273.265991 
M805.330872,287.111298 
	C808.660645,287.641602 811.990417,288.171875 815.320190,288.702148 
	C815.586426,287.882904 815.852600,287.063660 816.118835,286.244446 
	C813.978088,285.179535 811.889343,283.457153 809.678284,283.282471 
	C808.220398,283.167267 806.586548,285.279053 805.330872,287.111298 
z"/>
<path fill="#263238" opacity="1.000000" stroke="none" 
	d="
M987.896851,106.931625 
	C988.592468,106.268433 989.728699,105.611313 990.861511,104.948418 
	C995.954956,101.967804 996.028809,101.235199 992.328674,96.578415 
	C989.366272,92.850121 988.170532,88.635521 989.950012,84.013947 
	C991.248840,80.640747 993.966675,79.360458 997.766479,79.742867 
	C992.709656,86.992027 992.580200,90.895264 998.175415,97.549919 
	C1000.638000,100.478851 999.817200,102.630341 997.165710,104.025093 
	C994.460693,105.448013 991.298157,106.001122 987.896851,106.931625 
z"/>
<path fill="#263036" opacity="1.000000" stroke="none" 
	d="
M1012.202881,168.950302 
	C1024.596069,162.240631 1027.107666,156.353943 1022.782837,142.484894 
	C1027.830444,142.390732 1030.766602,147.063492 1029.827148,153.522049 
	C1028.548462,162.312683 1021.687012,168.468414 1012.202881,168.950302 
z"/>
<path fill="#48BB95" opacity="1.000000" stroke="none" 
	d="
M795.424072,274.588959 
	C799.961853,280.235107 798.382507,283.003815 789.306946,285.579376 
	C789.110291,287.023224 788.894226,288.609283 788.678101,290.195374 
	C788.150330,290.255371 787.622620,290.315399 787.094849,290.375397 
	C786.592102,285.690369 786.089417,281.005310 785.586731,276.320251 
	C786.050293,276.223480 786.513855,276.126709 786.977417,276.029938 
	C787.283081,276.967346 787.415344,278.017181 787.933777,278.816589 
	C788.773804,280.112091 789.886230,282.233459 790.849243,282.214966 
	C792.344849,282.186310 793.811646,280.653595 795.290649,279.758484 
	C794.377747,278.372498 793.778320,276.346527 792.494568,275.717743 
	C788.261841,273.644623 783.783081,272.706665 779.409424,275.632751 
	C779.541382,270.725952 786.559021,270.158203 795.424072,274.588959 
z"/>
<path fill="#48BB95" opacity="1.000000" stroke="none" 
	d="
M1046.726929,272.134155 
	C1048.062256,272.525848 1049.287354,272.571381 1049.904175,273.207062 
	C1051.731201,275.089722 1054.687500,277.259857 1054.609497,279.214172 
	C1054.533203,281.129150 1051.353394,283.012512 1049.363281,284.707184 
	C1048.698486,285.273315 1047.501465,285.214508 1046.317505,285.496185 
	C1046.116455,287.143982 1045.922607,288.732422 1045.728760,290.320862 
	C1045.211670,290.369751 1044.694458,290.418610 1044.177246,290.467468 
	C1043.659912,285.277435 1043.142578,280.087402 1042.537598,274.017395 
	C1040.707275,274.327850 1038.519043,274.699005 1036.472656,275.046112 
	C1037.405273,271.501434 1037.762329,271.385437 1046.726929,272.134155 
M1052.713623,279.478790 
	C1050.526855,277.467499 1048.340088,275.456177 1046.153442,273.444885 
	C1045.523560,273.891357 1044.893677,274.337830 1044.263794,274.784302 
	C1045.063354,277.261719 1045.862915,279.739136 1046.662476,282.216553 
	C1048.572388,281.536194 1050.482178,280.855835 1052.713623,279.478790 
z"/>
<path fill="#263137" opacity="1.000000" stroke="none" 
	d="
M1205.066650,96.927048 
	C1209.314697,94.110565 1213.237305,90.772324 1212.940430,84.626808 
	C1212.685913,79.356232 1209.986084,75.739494 1205.006470,73.310623 
	C1212.109985,73.120346 1217.858887,78.027672 1217.970215,84.336876 
	C1218.093872,91.329086 1212.869507,96.605637 1205.066650,96.927048 
z"/>
<path fill="#263238" opacity="1.000000" stroke="none" 
	d="
M934.848022,122.934692 
	C939.252197,119.576073 942.802307,115.157753 940.883728,109.160782 
	C939.847290,105.921082 936.547424,103.405540 934.023071,100.313461 
	C941.270813,100.127258 945.781006,104.066521 946.008362,110.746346 
	C946.252563,117.920471 942.495239,122.189842 934.848022,122.934692 
z"/>
<path fill="#48BB95" opacity="1.000000" stroke="none" 
	d="
M1138.160034,290.360535 
	C1137.067993,290.507751 1136.262451,290.888580 1135.782104,290.640137 
	C1134.177856,289.810516 1132.690063,288.755615 1131.157715,287.787048 
	C1132.789185,287.431458 1134.424927,287.094513 1136.050781,286.714874 
	C1137.673706,286.335907 1140.400757,286.301392 1140.700073,285.440216 
	C1141.697266,282.571503 1141.822021,279.399536 1142.281128,276.343781 
	C1141.773193,276.192566 1141.265381,276.041321 1140.757568,275.890106 
	C1139.788696,276.557617 1138.819946,277.225159 1137.732422,277.974426 
	C1137.524170,277.494781 1137.083374,276.852997 1137.209106,276.710205 
	C1138.209961,275.573944 1139.327759,273.674011 1140.391479,273.685547 
	C1141.637207,273.699066 1143.844482,275.329132 1143.923340,276.385681 
	C1144.201538,280.114105 1143.747559,283.897186 1143.528809,288.567505 
	C1143.407227,288.496704 1144.485962,289.124786 1145.564697,289.752899 
	C1145.511841,290.105591 1145.459106,290.458313 1145.406250,290.811005 
	C1143.135986,290.642639 1140.865723,290.474243 1138.160034,290.360535 
z"/>
<path fill="#48BB95" opacity="1.000000" stroke="none" 
	d="
M874.398193,282.760925 
	C877.173462,279.270294 879.761169,276.021149 883.420959,271.425934 
	C882.456116,278.711487 881.669189,284.653687 880.882263,290.595886 
	C880.331787,290.579315 879.781250,290.562775 879.230774,290.546204 
	C879.151184,289.259827 879.040283,287.974396 879.000793,286.686768 
	C878.960999,285.386841 878.992126,284.084717 878.992126,283.212708 
	C877.152161,281.118622 875.917664,286.983521 874.398193,282.760925 
z"/>
<path fill="#48BB95" opacity="1.000000" stroke="none" 
	d="
M1111.155273,285.728027 
	C1111.522461,287.498810 1111.780762,288.896973 1112.039062,290.295135 
	C1111.458862,290.444733 1110.878540,290.594299 1110.298340,290.743896 
	C1109.292603,286.872437 1108.286865,283.000977 1107.335083,279.336731 
	C1113.374268,275.539215 1114.618896,275.499603 1117.920288,278.631409 
	C1109.682739,279.668762 1109.682739,279.668762 1111.155273,285.728027 
z"/>
<path fill="#48BB95" opacity="1.000000" stroke="none" 
	d="
M855.220703,278.991486 
	C854.498413,280.825500 853.825623,282.576355 853.871704,284.308044 
	C853.924866,286.309753 854.611267,288.294647 855.022827,290.286835 
	C854.427979,290.424103 853.833130,290.561371 853.238342,290.698639 
	C852.261108,286.793427 851.283875,282.888184 850.269958,278.836273 
	C854.254333,276.904205 857.509094,275.088898 862.310425,278.899872 
	C859.232727,278.899872 857.410278,278.899872 855.220703,278.991486 
z"/>
<path fill="#4DC9A1" opacity="1.000000" stroke="none" 
	d="
M799.626953,273.494446 
	C799.851929,278.548492 799.743042,283.830994 799.461548,289.465271 
	C799.290344,284.452301 799.291809,279.087585 799.626953,273.494446 
z"/>
<path fill="#263238" opacity="1.000000" stroke="none" 
	d="
M652.863525,130.921478 
	C653.404602,130.580750 654.333130,130.227859 655.642212,129.877960 
	C655.098816,130.223740 654.174866,130.566544 652.863525,130.921478 
z"/>
<path fill="#263137" opacity="1.000000" stroke="none" 
	d="
M1009.715088,68.694839 
	C1009.540527,68.776588 1009.133118,68.681023 1008.573242,68.305084 
	C1008.774597,68.188980 1009.128418,68.353249 1009.715088,68.694839 
z"/>
<path fill="#F8ECD4" opacity="1.000000" stroke="none" 
	d="
M793.178223,396.131958 
	C784.557129,408.350250 768.690186,408.088989 760.282043,398.948181 
	C754.171631,392.305328 752.988647,381.789978 757.835510,373.574463 
	C762.091980,366.359741 772.120178,361.841919 779.567749,363.783966 
	C789.731262,366.434204 796.538879,374.294495 796.172180,383.945709 
	C796.020874,387.927338 794.320801,391.850128 793.178223,396.131958 
z"/>
<path fill="#F8ECD4" opacity="1.000000" stroke="none" 
	d="
M755.711792,492.743439 
	C758.902771,477.983032 775.573914,470.959259 788.190186,479.704773 
	C796.560364,485.506927 799.602112,497.214508 794.772156,506.655487 
	C790.004456,515.974792 778.488770,520.171448 768.849792,516.574768 
	C758.468262,512.701111 753.554504,500.953522 755.711792,492.743439 
z"/>
<path fill="#F8ECD3" opacity="1.000000" stroke="none" 
	d="
M904.773376,483.250641 
	C912.929810,493.946655 909.954895,506.843506 902.815247,513.135132 
	C895.069946,519.960449 882.201294,519.815430 874.246399,512.435974 
	C867.072510,505.780975 865.951782,492.730530 871.889832,484.995331 
	C878.780640,476.019043 890.162476,473.609619 899.284851,479.258179 
	C901.103455,480.384277 902.774292,481.748932 904.773376,483.250641 
z"/>
<path fill="#F8EBD3" opacity="1.000000" stroke="none" 
	d="
M908.213684,390.023193 
	C903.384033,405.649567 886.528687,409.910919 875.725342,402.174591 
	C868.405212,396.932648 865.164001,387.320251 868.044067,378.017700 
	C870.561829,369.885101 878.458130,364.959625 887.204529,364.058899 
	C898.785217,362.866333 911.320862,375.208679 908.213684,390.023193 
z"/>
<path fill="#F8ECD4" opacity="1.000000" stroke="none" 
	d="
M1090.176025,462.689453 
	C1079.530884,460.924103 1072.526123,455.819916 1070.530518,444.967255 
	C1068.561279,434.258545 1075.575317,423.335846 1086.211182,421.091400 
	C1097.740601,418.658295 1108.957642,425.499237 1111.290527,436.386719 
	C1114.302368,450.442566 1105.957886,461.050079 1090.176025,462.689453 
z"/>
<path fill="#F8ECD4" opacity="1.000000" stroke="none" 
	d="
M1056.309937,386.601318 
	C1054.717285,400.011505 1043.976318,406.445862 1034.437012,405.639069 
	C1021.450317,404.540710 1013.711853,394.505280 1014.917297,381.662476 
	C1015.869507,371.517059 1026.219849,362.799652 1036.878418,363.483551 
	C1047.928955,364.192596 1057.572754,374.112427 1056.309937,386.601318 
z"/>
<path fill="#F8EBD3" opacity="1.000000" stroke="none" 
	d="
M1129.627930,395.299591 
	C1123.930786,384.601837 1127.749512,373.879517 1134.940063,368.236908 
	C1141.896729,362.777863 1154.195801,362.475525 1160.825928,368.553284 
	C1167.095215,374.300201 1170.183350,381.201233 1168.311768,389.406219 
	C1166.352539,397.995728 1160.473633,403.614197 1151.853760,405.670410 
	C1143.762329,407.600586 1135.465698,403.890778 1130.665527,396.843231 
	C1130.385376,396.431976 1130.067261,396.046478 1129.627930,395.299591 
z"/>
<path fill="#F8ECD4" opacity="1.000000" stroke="none" 
	d="
M1057.125000,496.979614 
	C1056.231323,509.530426 1047.322021,518.109253 1035.796997,517.968262 
	C1024.956543,517.835632 1015.365845,508.651031 1015.058777,497.220886 
	C1014.790771,487.246155 1022.460999,478.036163 1032.141968,476.282776 
	C1043.336548,474.255249 1052.988770,481.113068 1055.763794,489.755249 
	C1056.463379,491.933868 1056.684082,494.266296 1057.125000,496.979614 
z"/>
<path fill="#F8ECD3" opacity="1.000000" stroke="none" 
	d="
M1151.515381,476.355652 
	C1166.827271,479.513306 1172.112427,492.125061 1168.745483,503.834778 
	C1166.703125,510.937683 1159.575317,517.206604 1152.477417,517.954651 
	C1142.042603,519.054382 1134.543579,515.180725 1130.335083,506.516815 
	C1126.503540,498.628876 1127.663086,489.718994 1133.006836,483.807709 
	C1137.897217,478.397949 1143.754639,475.659271 1151.515381,476.355652 
z"/>
<path fill="#393E46" opacity="1.000000" stroke="none" 
	d="
M870.866333,139.946930 
	C875.326111,137.677338 879.892578,135.575653 884.289429,133.164658 
	C886.123047,132.159149 887.595703,130.495346 889.558716,129.049866 
	C888.512573,144.072418 880.580994,153.050583 867.219971,153.595047 
	C864.674438,148.989639 863.556335,144.804840 867.173523,140.820099 
	C867.173523,140.820099 867.359436,140.763031 867.777954,140.848541 
	C869.129211,140.595474 870.061951,140.256897 870.994751,139.918335 
	C870.994751,139.918320 870.904602,139.989990 870.866333,139.946930 
z"/>
<path fill="#39444A" opacity="1.000000" stroke="none" 
	d="
M747.084473,111.875687 
	C747.614380,113.551834 748.843079,115.358337 748.558716,116.882591 
	C746.940063,125.560005 745.240295,134.245285 742.951233,142.762070 
	C742.153625,145.729691 739.597351,148.224625 737.223145,150.747467 
	C736.099731,147.852722 734.953857,145.084061 735.207153,142.449921 
	C736.289124,131.196579 739.411987,120.621529 747.084473,111.875687 
z"/>
<path fill="#263036" opacity="1.000000" stroke="none" 
	d="
M746.801270,111.735764 
	C739.411987,120.621529 736.289124,131.196579 735.207153,142.449921 
	C734.953857,145.084061 736.099731,147.852722 736.890259,150.825745 
	C733.240601,153.218460 730.957886,151.603226 730.710022,147.593948 
	C729.956360,135.401199 733.056519,124.180367 740.536621,114.454208 
	C741.738037,112.891960 744.485413,112.518715 746.801270,111.735764 
z"/>
<path fill="#2C3A3E" opacity="1.000000" stroke="none" 
	d="
M866.245483,129.252258 
	C864.899414,129.881485 863.862305,130.337875 861.787292,131.251007 
	C864.501404,122.640999 866.266479,114.700081 873.904358,109.646126 
	C876.841431,115.929459 873.820129,123.428841 866.245483,129.252258 
z"/>
<path fill="#263238" opacity="1.000000" stroke="none" 
	d="
M866.748169,140.853821 
	C863.556335,144.804840 864.674438,148.989639 866.811829,153.545349 
	C860.620117,153.419113 859.393738,151.358154 860.390442,142.355408 
	C862.274963,141.889099 864.298889,141.388321 866.748169,140.853821 
z"/>
<path fill="#2C3A3E" opacity="1.000000" stroke="none" 
	d="
M794.429016,180.513763 
	C796.201416,179.139114 797.736206,178.038345 799.270935,176.937576 
	C799.568481,177.146225 799.865967,177.354858 800.163452,177.563492 
	C799.543030,179.321915 799.237305,181.301392 798.205383,182.770859 
	C797.333679,184.012100 795.619995,184.662094 794.278992,185.573761 
	C794.249756,183.978394 794.220581,182.383011 794.429016,180.513763 
z"/>
<path fill="#263238" opacity="1.000000" stroke="none" 
	d="
M870.613037,139.805176 
	C870.061951,140.256897 869.129211,140.595474 867.810059,140.940338 
	C868.359558,140.528427 869.295410,140.110214 870.613037,139.805176 
z"/>
<path fill="#393E46" opacity="1.000000" stroke="none" 
	d="
M685.907593,88.749649 
	C685.589417,88.747421 685.553528,88.478508 685.824951,88.088005 
	C685.955750,88.160248 685.974915,88.332428 685.907593,88.749649 
z"/>
<path fill="#2C3A3E" opacity="1.000000" stroke="none" 
	d="
M1291.140625,146.852234 
	C1291.535522,145.043076 1292.423828,143.218445 1291.860229,142.186325 
	C1288.413452,135.872162 1293.580811,131.797943 1295.054932,126.787804 
	C1295.695312,126.802528 1296.335571,126.817261 1296.975952,126.831993 
	C1296.975952,134.228012 1297.692871,141.717804 1296.741699,148.989395 
	C1296.021606,154.495010 1288.706421,156.083847 1284.459717,152.578552 
	C1286.610474,150.800735 1288.786865,149.001892 1291.140625,146.852234 
z"/>
<path fill="#39444A" opacity="1.000000" stroke="none" 
	d="
M657.973022,81.133789 
	C662.904663,85.527229 663.313782,91.300293 662.471863,97.206581 
	C661.288025,105.511757 657.886658,112.819069 651.288025,118.303574 
	C651.587708,115.472656 652.213074,112.902847 652.690552,110.305855 
	C654.477539,100.586647 656.216248,90.858559 657.973022,81.133789 
z"/>
<path fill="#263137" opacity="1.000000" stroke="none" 
	d="
M657.797363,80.896423 
	C656.216248,90.858559 654.477539,100.586647 652.690552,110.305855 
	C652.213074,112.902847 651.587708,115.472656 650.992065,118.446434 
	C649.645447,119.726562 648.336975,120.615204 647.028503,121.503838 
	C646.582825,121.280937 646.137085,121.058044 645.691406,120.835144 
	C648.495239,107.485283 651.299011,94.135422 654.484192,80.328949 
	C655.086365,79.808640 655.307251,79.744949 655.528198,79.681259 
	C656.226013,80.007187 656.923828,80.333122 657.797363,80.896423 
z"/>
<path fill="#39444A" opacity="1.000000" stroke="none" 
	d="
M655.196899,79.448013 
	C655.307251,79.744949 655.086365,79.808640 654.524658,79.923470 
	C647.389771,80.666603 640.595825,81.358597 633.801819,82.050591 
	C640.496765,78.197647 647.472290,76.889580 655.196899,79.448013 
z"/>
<path fill="#39444A" opacity="1.000000" stroke="none" 
	d="
M631.531677,82.470268 
	C631.511169,82.469917 631.552185,82.470619 631.531677,82.470268 
z"/>
<path fill="#263036" opacity="1.000000" stroke="none" 
	d="
M922.224060,671.180420 
	C921.566772,668.516602 921.156372,665.598572 920.759705,662.777466 
	C927.745850,661.079895 927.856689,661.257446 927.456177,667.920105 
	C927.382263,669.149658 928.389954,670.444336 928.881042,671.665649 
	C926.426208,673.337219 925.571777,663.614197 922.224060,671.180420 
z"/>
<path fill="#263036" opacity="1.000000" stroke="none" 
	d="
M973.518372,668.431030 
	C972.945984,669.546631 972.699585,670.471558 972.453247,671.396423 
	C972.228760,671.388611 972.004333,671.380737 971.779846,671.372925 
	C971.779846,668.402710 971.779846,665.432495 971.779846,660.839905 
	C974.223389,662.206665 976.973450,662.806702 977.597717,664.297180 
	C978.753845,667.057556 976.678101,668.384338 973.518372,668.431030 
z"/>
<path fill="#263137" opacity="1.000000" stroke="none" 
	d="
M982.208130,664.966492 
	C987.493408,665.063965 984.840027,668.853943 986.662048,672.411743 
	C983.620789,671.604309 981.998657,671.173645 980.376465,670.742920 
	C981.328674,669.415833 982.280945,668.088684 983.282166,666.693237 
	C983.083679,666.456421 982.487366,665.744934 982.208130,664.966492 
z"/>
<path fill="#2C3A3E" opacity="1.000000" stroke="none" 
	d="
M962.482788,666.628113 
	C961.999268,667.998596 961.777466,669.122742 961.383301,671.120422 
	C961.097046,668.082764 960.889465,665.879639 960.667725,663.526062 
	C964.952393,665.066711 967.369751,667.092529 965.274536,671.564026 
	C964.376587,669.724731 963.560547,668.053284 962.482788,666.628113 
z"/>
<path fill="#39444A" opacity="1.000000" stroke="none" 
	d="
M843.509888,279.751099 
	C841.388855,280.899475 839.446899,281.730560 837.504883,282.561615 
	C837.083679,282.024109 836.662415,281.486603 836.241211,280.949097 
	C837.574951,279.423737 838.908752,277.898376 840.242493,276.373047 
	C841.391235,277.393311 842.540039,278.413574 843.509888,279.751099 
z"/>
<path fill="#39444A" opacity="1.000000" stroke="none" 
	d="
M1100.709351,279.077820 
	C1098.772949,280.506897 1096.861450,281.567749 1094.949829,282.628632 
	C1094.447266,282.010864 1093.944702,281.393127 1093.442139,280.775391 
	C1094.630737,279.337402 1095.606079,277.542816 1097.115112,276.640930 
	C1097.700195,276.291199 1099.492065,277.960236 1100.709351,279.077820 
z"/>
<path fill="#39444A" opacity="1.000000" stroke="none" 
	d="
M1062.599365,287.383423 
	C1063.364258,285.787476 1064.511841,283.289825 1065.414429,283.375427 
	C1068.003296,283.620941 1070.493164,284.912781 1073.021851,285.793335 
	C1072.834839,286.656860 1072.647827,287.520386 1072.460693,288.383881 
	C1069.263916,288.143066 1066.067017,287.902252 1062.599365,287.383423 
z"/>
<path fill="#39444A" opacity="1.000000" stroke="none" 
	d="
M805.181152,286.752502 
	C806.586548,285.279053 808.220398,283.167267 809.678284,283.282471 
	C811.889343,283.457153 813.978088,285.179535 816.118835,286.244446 
	C815.852600,287.063660 815.586426,287.882904 815.320190,288.702148 
	C811.990417,288.171875 808.660645,287.641602 805.181152,286.752502 
z"/>
<path fill="#393E46" opacity="1.000000" stroke="none" 
	d="
M1052.552856,279.827118 
	C1050.482178,280.855835 1048.572388,281.536194 1046.662476,282.216553 
	C1045.862915,279.739136 1045.063354,277.261719 1044.263794,274.784302 
	C1044.893677,274.337830 1045.523560,273.891357 1046.153442,273.444885 
	C1048.340088,275.456177 1050.526855,277.467499 1052.552856,279.827118 
z"/>
</svg>