<svg version="1.1" id="Layer_1" xmlns="http://www.w3.org/2000/svg" xmlns:xlink="http://www.w3.org/1999/xlink" x="0px" y="0px"
	 width="100%" viewBox="0 0 107 107" enable-background="new 0 0 107 107" xml:space="preserve">
<path fill="#010101" opacity="1.000000" stroke="none" 
	d="
M53.000000,108.000000 
	C35.333336,108.000000 18.166672,108.000000 1.000005,108.000000 
	C1.000003,72.333336 1.000003,36.666679 1.000002,1.000014 
	C36.666656,1.000010 72.333313,1.000010 107.999977,1.000005 
	C107.999985,36.666653 107.999985,72.333305 107.999992,107.999977 
	C89.833336,108.000000 71.666664,108.000000 53.000000,108.000000 
M59.984570,32.595062 
	C59.984570,29.787012 59.984570,26.978962 59.984570,24.170912 
	C59.313469,24.155769 58.642368,24.140629 57.971264,24.125486 
	C57.868340,25.745378 57.680798,27.365028 57.676167,28.985201 
	C57.645302,39.780602 57.695629,50.576374 57.629826,61.371479 
	C57.600529,66.177216 56.792431,70.676315 51.699131,72.957001 
	C51.008907,73.266060 50.426029,73.814842 49.793449,74.252625 
	C51.003315,75.012978 52.015064,75.206779 52.733738,74.834618 
	C57.925686,72.146049 59.934669,67.580612 59.954884,61.970684 
	C59.988991,52.504017 59.977108,43.037182 59.984570,32.595062 
z"/>
<path fill="#DFDFDF" opacity="1.000000" stroke="none" 
	d="
M59.984570,33.082741 
	C59.977108,43.037182 59.988991,52.504017 59.954884,61.970684 
	C59.934669,67.580612 57.925686,72.146049 52.733738,74.834618 
	C52.015064,75.206779 51.003315,75.012978 49.793449,74.252625 
	C50.426029,73.814842 51.008907,73.266060 51.699131,72.957001 
	C56.792431,70.676315 57.600529,66.177216 57.629826,61.371479 
	C57.695629,50.576374 57.645302,39.780602 57.676167,28.985201 
	C57.680798,27.365028 57.868340,25.745378 57.971264,24.125486 
	C58.642368,24.140629 59.313469,24.155769 59.984570,24.170912 
	C59.984570,26.978962 59.984570,29.787012 59.984570,33.082741 
z"/>
</svg>