<svg version="1.1" id="Layer_1" xmlns="http://www.w3.org/2000/svg" xmlns:xlink="http://www.w3.org/1999/xlink" x="0px" y="0px"
	 width="100%" viewBox="0 0 1916 920" enable-background="new 0 0 1916 920" xml:space="preserve">
<path fill="#011F3F" opacity="1.000000" stroke="none" 
	d="
M1.000000,919.000000 
	C1.000000,613.032715 1.000000,307.065491 1.000000,1.049109 
	C639.565613,1.049109 1278.131226,1.049109 1917.000000,1.049109 
	C1917.000000,306.699341 1917.000000,612.398743 1916.537354,918.550354 
	C1748.049805,919.008789 1580.024902,919.015076 1411.531372,919.013916 
	C1318.706909,919.014526 1226.350952,919.022583 1133.529419,919.023682 
	C1005.043823,919.021423 877.023926,919.026001 748.541138,919.021423 
	C564.729736,919.013184 381.381256,919.014099 197.560791,918.992737 
	C181.369415,918.989624 165.649994,919.008850 149.466309,919.022827 
	C99.668030,919.011780 50.334015,919.005859 1.000000,919.000000 
M1193.934570,548.536072 
	C1184.285034,540.241211 1173.180542,536.797791 1160.393921,536.886108 
	C1117.750122,537.180725 1075.103027,536.985718 1032.457275,537.002747 
	C1007.222046,537.012817 988.009460,556.324341 988.001770,581.677124 
	C987.988464,625.322449 987.985413,668.967712 988.003113,712.613037 
	C988.013245,737.594849 1007.339539,756.984802 1032.247681,756.996094 
	C1076.059570,757.015930 1119.871460,757.015198 1163.683350,756.996521 
	C1188.633057,756.985840 1207.987671,737.624146 1207.995972,712.682007 
	C1208.010498,669.203308 1207.914062,625.724243 1208.052734,582.246033 
	C1208.094360,569.176697 1203.450317,558.276978 1193.934570,548.536072 
M830.500000,536.998535 
	C806.678223,536.998718 782.856384,536.991211 759.034607,537.001221 
	C733.092834,537.012146 714.006470,556.145264 714.001465,582.152954 
	C713.993042,625.631958 713.987610,669.110962 714.004028,712.589966 
	C714.013428,737.535706 733.402283,756.984924 758.278259,756.995361 
	C802.090454,757.013733 845.902649,757.013611 889.714844,756.995361 
	C914.590759,756.984985 933.986572,737.535217 933.995972,712.596863 
	C934.012451,668.951294 934.010010,625.305664 933.997131,581.660095 
	C933.989624,556.361938 914.699463,537.021790 889.472046,537.002319 
	C870.148010,536.987366 850.824036,536.998779 830.500000,536.998535 
M1194.950684,470.460266 
	C1203.502441,461.326569 1208.050049,450.647461 1208.028564,437.992554 
	C1207.954224,394.171997 1208.025757,350.351196 1207.989502,306.530518 
	C1207.969727,282.758545 1188.151855,263.026062 1164.294922,263.009186 
	C1120.140991,262.977936 1075.987061,262.980347 1031.833130,263.008057 
	C1007.695679,263.023224 988.020813,282.733002 988.007202,306.902191 
	C987.982361,350.889496 987.986084,394.876801 988.005554,438.864105 
	C988.016418,463.373138 1007.605835,482.981323 1032.099365,482.993835 
	C1075.253540,483.015930 1118.408325,482.880005 1161.561646,483.075439 
	C1174.193604,483.132629 1185.024780,479.179901 1194.950684,470.460266 
M933.897034,444.034729 
	C933.927002,397.385681 934.172424,350.735291 933.890686,304.088135 
	C933.761597,282.707977 913.396606,263.104462 891.887695,263.042908 
	C846.571045,262.913177 801.253479,262.895844 755.937012,263.050690 
	C734.048340,263.125458 714.093872,283.291077 714.037720,305.262573 
	C713.922241,350.412659 713.922974,395.563507 714.037109,440.713593 
	C714.093201,462.907837 734.179016,482.916656 756.412842,482.967255 
	C801.396362,483.069672 846.380981,483.107819 891.363281,482.849060 
	C896.528320,482.819336 901.951904,481.409149 906.790344,479.475067 
	C922.346191,473.257019 930.720337,461.086365 933.897034,444.034729 
M896.255310,109.194984 
	C898.117981,108.551483 899.980713,107.907974 901.936768,107.232201 
	C902.132385,105.620583 902.343201,103.883560 902.552673,102.157791 
	C904.537842,101.992149 906.160339,101.856766 907.873657,101.713806 
	C907.873657,99.109138 907.873657,96.697014 907.873657,94.387505 
	C903.121826,94.387505 898.698364,94.387505 894.216003,94.387505 
	C894.095215,96.352676 893.995667,97.973434 893.881409,99.833130 
	C891.905518,99.989700 890.158203,100.128166 888.341309,100.272141 
	C888.114075,102.344711 887.922974,104.087509 887.740967,105.747246 
	C885.661438,106.012642 883.919617,106.234940 882.690430,106.391815 
	C881.262146,108.620499 883.756165,113.384514 878.062012,111.395271 
	C878.062012,105.691994 878.062012,100.049622 878.062012,94.318909 
	C873.343933,94.318909 868.922607,94.318909 864.418640,94.318909 
	C864.418640,108.966606 864.418640,123.333649 864.418640,137.793335 
	C869.096436,137.793335 873.396606,137.793335 877.669189,137.793335 
	C879.538879,126.304619 879.538879,126.304619 881.880859,126.586189 
	C882.009827,128.211746 882.138794,129.837296 882.289612,131.738464 
	C884.227539,131.889862 885.973938,132.026291 887.767456,132.166397 
	C887.997437,134.209854 888.193359,135.950607 888.401062,137.796249 
	C895.039734,137.796249 901.336731,137.796249 907.915527,137.796249 
	C907.915527,135.260223 907.915527,132.829056 907.915527,130.323212 
	C905.979614,130.112823 904.221191,129.921738 902.483826,129.732925 
	C902.237366,127.738556 902.022156,125.997574 901.805725,124.246437 
	C899.831543,124.079582 898.192017,123.941010 896.494202,123.797516 
	C896.269775,121.894707 896.060242,120.117683 895.856323,118.388863 
	C890.263855,117.771271 890.263855,117.771271 890.959412,114.152351 
	C892.563171,114.000587 894.188049,113.846840 895.930725,113.681938 
	C896.030273,112.383965 896.118530,111.232834 896.255310,109.194984 
M812.194824,134.973831 
	C812.194824,125.414307 812.194824,115.854782 812.194824,106.273888 
	C809.860962,106.083954 808.223389,105.950684 806.480591,105.808853 
	C806.271606,103.918373 806.075439,102.144348 805.874573,100.327438 
	C803.951721,100.111328 802.199280,99.914360 800.499451,99.723305 
	C800.233459,97.705193 800.004883,95.971046 799.799927,94.416199 
	C793.031921,94.416199 786.633850,94.416199 780.227905,94.416199 
	C780.081360,96.407402 779.962341,98.024315 779.833130,99.779343 
	C777.860596,99.976212 776.116333,100.150291 774.352844,100.326286 
	C774.107788,102.379959 773.900574,104.116425 773.692444,105.860023 
	C771.765076,106.008789 770.152771,106.133232 768.363281,106.271355 
	C768.363281,116.864708 768.363281,127.225349 768.363281,137.666687 
	C773.076782,137.666687 777.465332,137.666687 782.370117,137.666687 
	C782.370117,133.658676 782.370117,129.930664 782.370117,126.226700 
	C787.815674,126.226700 792.735901,126.226700 798.186951,126.226700 
	C798.186951,130.203094 798.186951,133.931396 798.186951,137.954468 
	C802.354980,137.954468 805.996704,138.088318 809.615417,137.859268 
	C810.507568,137.802811 811.324951,136.565216 812.194824,134.973831 
M1244.199219,104.415146 
	C1244.077515,103.010139 1243.955933,101.605133 1243.840210,100.268745 
	C1241.759033,100.073517 1240.133545,99.921021 1238.487671,99.766632 
	C1238.252808,97.824051 1238.039673,96.061470 1237.834473,94.364624 
	C1227.154663,94.364624 1216.740112,94.364624 1206.344360,94.364624 
	C1206.084106,96.428719 1205.864380,98.170090 1205.654053,99.837921 
	C1203.700195,100.004799 1202.088623,100.142448 1200.392944,100.287285 
	C1200.392944,104.961693 1200.392944,109.348381 1200.392944,113.786560 
	C1202.364746,113.914810 1203.987305,114.020355 1205.855591,114.141876 
	C1205.994385,116.109901 1206.116699,117.846466 1206.274658,120.086777 
	C1214.351196,120.086777 1222.085571,120.086777 1229.684570,120.086777 
	C1229.684570,123.693077 1229.684570,126.753105 1229.684570,129.752075 
	C1224.412842,129.752075 1219.501465,129.752075 1214.520142,129.752075 
	C1214.260498,127.742538 1214.035889,126.005051 1213.828857,124.402481 
	C1209.081299,124.402481 1204.670044,124.402481 1200.328613,124.402481 
	C1200.328613,127.033920 1200.328613,129.298889 1200.328613,131.653900 
	C1202.346069,131.887482 1204.091064,132.089508 1205.882568,132.296921 
	C1206.015381,134.206802 1206.127563,135.821289 1206.257446,137.689209 
	C1216.887939,137.689209 1227.310913,137.689209 1237.872559,137.689209 
	C1238.078125,135.847900 1238.276855,134.069183 1238.480591,132.244751 
	C1240.389771,132.030731 1242.145996,131.833832 1244.004395,131.625473 
	C1244.004395,127.065720 1244.004395,122.769775 1244.004395,118.327553 
	C1242.055176,118.127541 1240.283936,117.945786 1238.490845,117.761803 
	C1238.255005,115.822678 1238.040527,114.060661 1237.768433,111.824249 
	C1229.856689,111.824249 1222.133789,111.824249 1214.361084,111.824249 
	C1214.361084,108.342422 1214.361084,105.370216 1214.361084,102.245209 
	C1219.611084,102.245209 1224.696655,102.245209 1229.749756,102.245209 
	C1230.009766,104.264221 1230.233032,105.998497 1230.485474,107.959000 
	C1234.276733,107.959000 1237.775757,108.167244 1241.222900,107.834885 
	C1242.286987,107.732292 1243.208862,106.156418 1244.199219,104.415146 
M500.498108,94.041328 
	C493.745514,94.041328 486.992920,94.041328 480.367371,94.041328 
	C480.367371,109.092316 480.367371,123.346176 480.367371,137.649139 
	C485.091217,137.649139 489.485535,137.649139 494.200195,137.649139 
	C494.200195,133.705185 494.200195,130.066803 494.200195,125.974014 
	C502.279938,125.974014 510.044556,125.974014 517.883606,125.974014 
	C518.121216,123.765778 518.311035,122.001556 518.500732,120.238411 
	C520.489258,120.004036 522.229736,119.798897 523.967285,119.594101 
	C523.967285,112.966805 523.967285,106.681358 523.967285,100.338043 
	C521.982788,100.116226 520.221985,99.919418 518.492676,99.726128 
	C518.237122,97.724655 518.014893,95.984467 517.766785,94.041328 
	C512.141846,94.041328 506.819336,94.041328 500.498108,94.041328 
M982.498962,143.958679 
	C987.610657,143.958679 992.722351,143.958679 997.853516,143.958679 
	C998.117554,141.688843 998.321045,139.939728 998.527527,138.164291 
	C1000.470947,138.002716 1002.111877,137.866302 1003.916992,137.716232 
	C1003.916992,127.180885 1003.916992,116.765663 1003.916992,106.373123 
	C999.218506,106.373123 994.804993,106.373123 989.845947,106.373123 
	C989.845947,112.419281 989.845947,118.146553 989.845947,123.772903 
	C984.349731,123.772903 979.410400,123.772903 973.982056,123.772903 
	C973.982056,117.766869 973.982056,112.025497 973.982056,106.429527 
	C969.078430,106.429527 964.676208,106.429527 960.343628,106.429527 
	C960.343628,113.085167 960.343628,119.348610 960.343628,125.644547 
	C962.383179,125.898262 964.130493,126.115616 965.860718,126.330849 
	C966.012512,128.243927 966.140625,129.858109 966.308167,131.969635 
	C974.250244,131.969635 982.000061,131.969635 989.886292,131.969635 
	C989.886292,133.453217 989.937012,135.268356 989.879089,135.271820 
	C982.015625,135.743118 974.144226,136.082184 966.330811,136.424927 
	C966.330811,139.016205 966.330811,141.274750 966.330811,143.958679 
	C971.573547,143.958679 976.537842,143.958679 982.498962,143.958679 
M612.896912,106.101814 
	C602.776062,106.101814 592.655212,106.101814 582.279968,106.101814 
	C582.111389,108.240509 581.974243,109.980286 581.835205,111.744125 
	C579.779663,111.992271 578.039551,112.202332 576.316223,112.410370 
	C576.316223,119.021095 576.316223,125.280067 576.316223,131.680435 
	C578.317993,131.889832 580.064392,132.072525 581.738159,132.247620 
	C582.012329,134.300400 582.243225,136.029312 582.477905,137.786438 
	C593.124146,137.786438 603.412720,137.786438 613.926392,137.786438 
	C613.926392,135.180984 613.926392,132.748337 613.926392,130.038040 
	C606.838379,130.038040 600.018066,129.981079 593.199341,130.063141 
	C590.001465,130.101624 589.476379,128.820190 591.135498,125.887512 
	C600.549805,125.887512 610.168518,125.887512 619.874634,125.887512 
	C619.874634,121.132332 619.874634,116.728355 619.874634,112.242126 
	C617.920105,112.094200 616.279236,111.970009 614.575623,111.841072 
	C614.286499,109.933716 614.017517,108.158867 612.896912,106.101814 
M944.290039,137.958679 
	C946.095825,137.958679 947.901672,137.958679 949.921631,137.958679 
	C949.921631,135.172516 949.921631,132.742706 949.921631,130.038010 
	C942.830933,130.038010 936.012634,129.981033 929.195984,130.063065 
	C925.994446,130.101593 925.477783,128.815994 927.134766,125.890961 
	C936.549561,125.890961 946.166809,125.890961 955.880188,125.890961 
	C955.880188,121.139214 955.880188,116.734497 955.880188,112.240364 
	C953.931641,112.095917 952.291016,111.974297 950.491760,111.840912 
	C950.280762,109.944618 950.082520,108.163521 949.876221,106.309601 
	C939.327454,106.309601 928.900940,106.309601 918.277710,106.309601 
	C918.101318,108.297569 917.946899,110.038246 917.796936,111.728729 
	C915.718567,112.006149 913.987610,112.237206 912.338745,112.457291 
	C912.338745,119.082268 912.338745,125.340355 912.338745,131.642212 
	C914.371338,131.892792 916.117737,132.108093 917.869080,132.324020 
	C918.012756,134.229828 918.134399,135.843979 918.293823,137.958679 
	C926.770569,137.958679 935.054016,137.958679 944.290039,137.958679 
M1312.525269,113.958672 
	C1316.021729,113.959236 1319.522583,114.071281 1323.013184,113.928070 
	C1326.307495,113.792915 1326.421997,115.355568 1325.514648,118.306839 
	C1317.658325,118.306839 1309.932861,118.306839 1302.266602,118.306839 
	C1302.078003,120.466408 1301.937012,122.080521 1301.791748,123.745033 
	C1299.806396,123.981216 1298.060059,124.188965 1296.299805,124.398376 
	C1296.299805,126.976677 1296.299805,129.235977 1296.299805,131.727219 
	C1298.278076,131.901535 1300.023926,132.055374 1301.750977,132.207535 
	C1302.008667,134.259827 1302.226074,135.990387 1302.428223,137.600418 
	C1315.165527,137.600418 1327.535522,137.600418 1339.966553,137.600418 
	C1339.966553,128.959641 1339.966553,120.678680 1339.966553,112.333862 
	C1337.983765,112.115791 1336.222412,111.922058 1334.495239,111.732094 
	C1334.236206,109.731285 1334.010620,107.989967 1333.806641,106.414261 
	C1323.051514,106.414261 1312.646362,106.414261 1302.348511,106.414261 
	C1302.348511,109.049171 1302.348511,111.307159 1302.348511,113.958672 
	C1305.614502,113.958672 1308.579956,113.958672 1312.525269,113.958672 
M1110.040283,134.524216 
	C1110.960083,135.668335 1111.855103,137.782547 1112.803467,137.806732 
	C1122.431274,138.052139 1132.067871,137.956573 1141.829956,137.956573 
	C1142.069336,135.864883 1142.272705,134.086746 1142.484009,132.240479 
	C1144.353882,132.034698 1146.117798,131.840591 1147.816895,131.653625 
	C1147.816895,125.026558 1147.816895,118.652351 1147.816895,112.247566 
	C1145.808838,112.075127 1144.174194,111.934753 1142.490112,111.790138 
	C1142.265625,109.878006 1142.057495,108.104446 1141.850220,106.338333 
	C1131.224243,106.338333 1120.812256,106.338333 1110.348755,106.338333 
	C1110.109253,108.365356 1109.903809,110.104584 1109.694824,111.873260 
	C1107.776001,112.014328 1106.162354,112.132965 1104.359131,112.265533 
	C1104.359131,118.877327 1104.359131,125.258400 1104.359131,130.864288 
	C1106.614868,131.963394 1108.320557,132.794434 1110.040283,134.524216 
M715.711060,124.343987 
	C713.955872,124.126923 712.200623,123.909859 710.500916,123.699654 
	C710.235535,121.699928 710.005493,119.966080 709.737305,117.944992 
	C701.815430,117.944992 694.194397,117.944992 686.700439,117.944992 
	C685.478760,114.659714 686.753723,113.871185 689.583862,113.922340 
	C696.332214,114.044312 703.084229,113.961678 709.805664,113.961678 
	C709.805664,110.982384 709.805664,108.608734 709.805664,106.423431 
	C699.016907,106.423431 688.625549,106.423431 678.231689,106.423431 
	C678.077820,108.422630 677.953430,110.038681 677.820374,111.768143 
	C675.842773,111.973671 674.100342,112.154762 672.276367,112.344330 
	C672.276367,114.933823 672.276367,117.191505 672.276367,119.736786 
	C674.228149,119.891235 675.972229,120.029259 677.769653,120.171501 
	C677.994019,122.209061 678.184814,123.941414 678.407349,125.962280 
	C685.527344,125.962280 692.325867,126.029617 699.122009,125.933853 
	C702.518372,125.886002 702.494934,127.452377 701.381714,130.188736 
	C691.693848,130.188736 682.100952,130.188736 672.398926,130.188736 
	C672.398926,132.929718 672.398926,135.293594 672.398926,137.639923 
	C685.132202,137.639923 697.504578,137.639923 709.971802,137.639923 
	C710.132935,135.689392 710.268494,134.048645 710.417786,132.241165 
	C712.267517,132.059784 714.029297,131.887024 716.060181,131.687866 
	C716.060181,129.376129 716.060181,127.239899 715.711060,124.343987 
M648.490173,106.039619 
	C642.400818,106.039619 636.311462,106.039619 630.261292,106.039619 
	C630.078186,108.417557 629.953674,110.034821 629.820740,111.761101 
	C627.839172,111.972855 626.094971,112.159241 624.282898,112.352875 
	C624.282898,114.943405 624.282898,117.203453 624.282898,119.734520 
	C626.243896,119.897202 627.990112,120.042061 629.758118,120.188736 
	C630.000305,122.230919 630.205811,123.963707 630.442688,125.961472 
	C637.400513,125.961472 644.044861,126.061188 650.684021,125.919472 
	C654.010803,125.848473 654.759644,127.009819 653.307922,130.244904 
	C643.625183,130.244904 634.022766,130.244904 624.444946,130.244904 
	C624.444946,133.008102 624.444946,135.374695 624.444946,137.785645 
	C637.147339,137.785645 649.444519,137.785645 661.863281,137.785645 
	C662.078735,135.846863 662.276428,134.067749 662.482361,132.215042 
	C664.389465,132.026520 666.140869,131.853378 667.981934,131.671371 
	C667.981934,129.050156 667.981934,126.760017 667.981934,124.305084 
	C666.021729,124.109406 664.259338,123.933472 662.489136,123.756760 
	C662.248596,121.801178 662.032471,120.043686 661.785828,118.038338 
	C654.895996,118.038338 648.243774,117.955421 641.595276,118.077438 
	C638.771362,118.129257 637.472656,117.356247 638.754272,113.908249 
	C646.319885,113.908249 654.065796,113.908249 661.825684,113.908249 
	C661.825684,111.024796 661.825684,108.636124 661.825684,106.039619 
	C657.463379,106.039619 653.473206,106.039619 648.490173,106.039619 
M1074.042236,97.690460 
	C1074.042236,100.428246 1074.042236,103.166031 1074.042236,106.244583 
	C1069.655518,106.244583 1066.050781,106.244583 1062.426514,106.244583 
	C1062.426514,108.982040 1062.426514,111.346260 1062.426514,114.068634 
	C1066.404053,114.068634 1070.003418,114.068634 1074.116821,114.068634 
	C1074.116821,122.138161 1074.116821,129.849182 1074.116821,137.693878 
	C1079.042847,137.693878 1083.436646,137.693878 1088.313965,137.693878 
	C1088.313965,129.713791 1088.313965,121.991852 1088.313965,113.975166 
	C1092.420654,113.975166 1096.051147,113.975166 1099.937012,113.975166 
	C1099.937012,111.235985 1099.937012,108.804970 1099.937012,105.921524 
	C1095.955200,105.921524 1092.208984,105.921524 1087.975830,105.921524 
	C1087.975830,101.739189 1087.975830,98.007767 1087.975830,94.043030 
	C1083.999878,94.043030 1080.499756,93.832954 1077.052612,94.167191 
	C1075.976807,94.271484 1075.043701,95.846230 1074.042236,97.690460 
M1424.197144,119.468140 
	C1424.197144,117.727562 1424.197144,115.986984 1424.197144,113.939423 
	C1428.468628,113.939423 1432.087280,113.939423 1435.935547,113.939423 
	C1435.935547,111.187553 1435.935547,108.757431 1435.935547,105.875885 
	C1431.933105,105.875885 1428.188477,105.875885 1423.949707,105.875885 
	C1423.949707,101.703606 1423.949707,97.982536 1423.949707,94.432365 
	C1419.038696,94.432365 1414.646606,94.432365 1409.913208,94.432365 
	C1409.913208,98.417953 1409.913208,102.015472 1409.913208,106.129570 
	C1405.844482,106.129570 1402.109619,106.129570 1398.269531,106.129570 
	C1398.269531,108.916397 1398.269531,111.169724 1398.269531,113.957520 
	C1402.202637,113.957520 1405.935669,113.957520 1410.166992,113.957520 
	C1410.166992,122.191933 1410.166992,129.903275 1410.166992,137.665222 
	C1415.082886,137.665222 1419.468750,137.665222 1424.197021,137.665222 
	C1424.197021,131.740784 1424.197021,126.106476 1424.197144,119.468140 
M1278.891846,137.898621 
	C1279.326904,136.298264 1280.099731,134.705826 1280.137329,133.096176 
	C1280.283936,126.838844 1280.197021,120.576035 1280.197021,113.814987 
	C1284.427490,113.814987 1288.157349,113.814987 1291.968262,113.814987 
	C1291.968262,111.023048 1291.968262,108.740158 1291.968262,106.008247 
	C1287.999146,106.008247 1284.243652,106.008247 1280.029785,106.008247 
	C1280.029785,101.810883 1280.029785,98.060089 1280.029785,94.389618 
	C1275.151367,94.389618 1270.750610,94.389618 1265.818359,94.389618 
	C1265.818359,98.451988 1265.818359,102.169945 1265.818359,106.227875 
	C1261.675171,106.227875 1258.072021,106.227875 1254.418457,106.227875 
	C1254.418457,108.966324 1254.418457,111.330887 1254.418457,114.233467 
	C1258.506592,114.233467 1262.224731,114.233467 1266.278931,114.233467 
	C1266.278931,122.371414 1266.278931,129.960846 1266.278931,137.952118 
	C1270.417114,137.952118 1274.206909,137.952118 1278.891846,137.898621 
M1365.371582,111.969543 
	C1364.737671,110.095360 1364.103882,108.221169 1363.485596,106.393204 
	C1359.146118,106.393204 1354.746216,106.393204 1350.295044,106.393204 
	C1350.295044,116.983734 1350.295044,127.218750 1350.295044,137.705490 
	C1354.958252,137.705490 1359.369141,137.705490 1364.250244,137.705490 
	C1364.250244,131.825455 1364.250244,126.087952 1364.250244,120.295532 
	C1366.441406,120.034622 1368.179688,119.827644 1369.838257,119.630157 
	C1370.148071,117.585312 1370.410156,115.855316 1370.717651,113.825340 
	C1376.596069,113.825340 1382.191284,113.825340 1387.859253,113.825340 
	C1387.859253,111.069176 1387.859253,108.670937 1387.859253,106.384506 
	C1381.103149,106.384506 1374.691895,106.384506 1369.239990,106.384506 
	C1368.029663,108.691574 1367.157959,110.353432 1365.371582,111.969543 
M545.103271,137.959671 
	C547.491455,138.306229 548.300354,137.251251 548.236328,134.891724 
	C548.106384,130.097839 548.197510,125.297966 548.197510,120.329041 
	C550.242004,120.090569 552.020203,119.883163 553.880859,119.666138 
	C554.113037,117.798935 554.334534,116.017960 554.588440,113.976242 
	C560.380920,113.976242 566.010681,113.976242 571.918335,113.976242 
	C571.918335,111.269485 571.918335,108.844971 571.918335,106.299751 
	C565.311035,106.299751 558.904846,106.299751 552.539551,106.299751 
	C551.720032,111.898972 551.720032,111.898972 548.396362,111.252945 
	C548.229065,109.622192 548.061707,107.991440 547.891113,106.328308 
	C543.305847,106.328308 538.890869,106.328308 534.406067,106.328308 
	C534.406067,116.974777 534.406067,127.329132 534.406067,137.960312 
	C537.908386,137.960312 541.050903,137.960312 545.103271,137.959671 
z"/>
<path fill="#211E32" opacity="1.000000" stroke="none" 
	d="
M198.032776,919.015015 
	C381.381256,919.014099 564.729736,919.013184 748.539917,919.349182 
	C749.001099,920.124084 749.000549,920.562012 749.000000,921.000000 
	C565.641724,921.000000 382.283508,921.000000 198.471222,920.669128 
	C198.022385,919.897156 198.027588,919.456116 198.032776,919.015015 
z"/>
<path fill="#26213C" opacity="1.000000" stroke="none" 
	d="
M1412.000000,919.021423 
	C1580.024902,919.015076 1748.049805,919.008789 1916.537354,919.001221 
	C1916.667480,919.666626 1916.453735,920.783813 1915.978638,920.909058 
	C1914.888672,921.196411 1913.671143,921.000000 1912.505493,921.000000 
	C1745.978760,921.000000 1579.452026,921.000000 1412.462646,920.670105 
	C1412.000000,919.900635 1412.000000,919.460999 1412.000000,919.021423 
z"/>
<path fill="#261E42" opacity="1.000000" stroke="none" 
	d="
M749.466064,921.000000 
	C749.000549,920.562012 749.001099,920.124084 749.002808,919.358337 
	C877.023926,919.026001 1005.043823,919.021423 1133.530762,919.351562 
	C1133.998535,920.124207 1133.999268,920.562073 1134.000000,921.000000 
	C1005.977356,921.000000 877.954773,921.000000 749.466064,921.000000 
z"/>
<path fill="#1E1D2A" opacity="1.000000" stroke="none" 
	d="
M1134.468750,921.000000 
	C1133.999268,920.562073 1133.998535,920.124207 1133.996460,919.358398 
	C1226.350952,919.022583 1318.706909,919.014526 1411.531372,919.013916 
	C1412.000000,919.460999 1412.000000,919.900635 1412.000000,920.670105 
	C1319.645752,921.000000 1227.291504,921.000000 1134.468750,921.000000 
z"/>
<path fill="#1E1D2A" opacity="1.000000" stroke="none" 
	d="
M1.000001,919.500000 
	C50.334015,919.005859 99.668030,919.011780 149.475677,919.351318 
	C149.966217,920.123291 149.983109,920.561646 150.000000,921.000000 
	C101.666672,921.000000 53.333336,921.007996 5.000061,920.958130 
	C3.666380,920.956726 2.333341,920.333313 1.000001,919.500000 
z"/>
<path fill="#261E42" opacity="1.000000" stroke="none" 
	d="
M150.468658,921.000000 
	C149.983109,920.561646 149.966217,920.123291 149.939957,919.356506 
	C165.649994,919.008850 181.369415,918.989624 197.560791,918.992737 
	C198.027588,919.456116 198.022385,919.897156 198.008591,920.669128 
	C182.312439,921.000000 166.624878,921.000000 150.468658,921.000000 
z"/>
<path fill="#000001" opacity="1.000000" stroke="none" 
	d="
M1194.191406,548.786987 
	C1203.450317,558.276978 1208.094360,569.176697 1208.052734,582.246033 
	C1207.914062,625.724243 1208.010498,669.203308 1207.995972,712.682007 
	C1207.987671,737.624146 1188.633057,756.985840 1163.683350,756.996521 
	C1119.871460,757.015198 1076.059570,757.015930 1032.247681,756.996094 
	C1007.339539,756.984802 988.013245,737.594849 988.003113,712.613037 
	C987.985413,668.967712 987.988464,625.322449 988.001770,581.677124 
	C988.009460,556.324341 1007.222046,537.012817 1032.457275,537.002747 
	C1075.103027,536.985718 1117.750122,537.180725 1160.393921,536.886108 
	C1173.180542,536.797791 1184.285034,540.241211 1194.191406,548.786987 
M1026.327393,547.488831 
	C1008.439880,551.335693 998.010864,564.297546 998.005554,582.760620 
	C997.993103,625.586792 997.990967,668.412964 998.006104,711.239136 
	C998.013611,732.540161 1012.473083,746.986877 1033.790283,746.994080 
	C1076.616455,747.008545 1119.442627,747.009583 1162.268799,746.993713 
	C1183.559570,746.985840 1197.987549,732.519836 1197.994629,711.179932 
	C1198.008667,668.353760 1198.010498,625.527588 1197.993774,582.701416 
	C1197.985474,561.425293 1183.507690,547.012329 1162.150146,547.005615 
	C1119.323975,546.992188 1076.497803,546.997314 1033.671631,547.014221 
	C1031.510254,547.015076 1029.348877,547.199402 1026.327393,547.488831 
z"/>
<path fill="#010100" opacity="1.000000" stroke="none" 
	d="
M831.000000,536.998535 
	C850.824036,536.998779 870.148010,536.987366 889.472046,537.002319 
	C914.699463,537.021790 933.989624,556.361938 933.997131,581.660095 
	C934.010010,625.305664 934.012451,668.951294 933.995972,712.596863 
	C933.986572,737.535217 914.590759,756.984985 889.714844,756.995361 
	C845.902649,757.013611 802.090454,757.013733 758.278259,756.995361 
	C733.402283,756.984924 714.013428,737.535706 714.004028,712.589966 
	C713.987610,669.110962 713.993042,625.631958 714.001465,582.152954 
	C714.006470,556.145264 733.092834,537.012146 759.034607,537.001221 
	C782.856384,536.991211 806.678223,536.998718 831.000000,536.998535 
M893.933655,547.161377 
	C849.103210,547.107971 804.272766,547.029358 759.442322,547.012390 
	C738.497925,547.004456 724.018372,561.566956 724.007690,582.589539 
	C723.985901,625.421570 723.990662,668.253601 724.005554,711.085632 
	C724.013062,732.690613 738.397827,746.989685 760.117432,746.995483 
	C802.616150,747.006897 845.114868,747.004578 887.613586,746.996704 
	C909.891174,746.992554 923.994629,732.785278 923.997437,710.354614 
	C924.002808,668.189209 924.001160,626.023804 923.997986,583.858398 
	C923.996521,563.942322 914.152527,551.611267 893.933655,547.161377 
z"/>
<path fill="#010000" opacity="1.000000" stroke="none" 
	d="
M1194.698608,470.710602 
	C1185.024780,479.179901 1174.193604,483.132629 1161.561646,483.075439 
	C1118.408325,482.880005 1075.253540,483.015930 1032.099365,482.993835 
	C1007.605835,482.981323 988.016418,463.373138 988.005554,438.864105 
	C987.986084,394.876801 987.982361,350.889496 988.007202,306.902191 
	C988.020813,282.733002 1007.695679,263.023224 1031.833130,263.008057 
	C1075.987061,262.980347 1120.140991,262.977936 1164.294922,263.009186 
	C1188.151855,263.026062 1207.969727,282.758545 1207.989502,306.530518 
	C1208.025757,350.351196 1207.954224,394.171997 1208.028564,437.992554 
	C1208.050049,450.647461 1203.502441,461.326569 1194.698608,470.710602 
M1197.999390,358.500000 
	C1197.999390,341.838654 1198.016968,325.177246 1197.994751,308.515930 
	C1197.966675,287.548523 1183.446777,273.017334 1162.474609,273.007324 
	C1119.488403,272.986786 1076.502319,272.986603 1033.516113,273.007385 
	C1012.548828,273.017517 998.017334,287.553101 998.007263,308.525330 
	C997.986694,351.511505 997.986511,394.497650 998.007385,437.483826 
	C998.017517,458.451202 1012.553101,472.982635 1033.525269,472.992676 
	C1076.511475,473.013214 1119.497559,473.013367 1162.483765,472.992615 
	C1183.450928,472.982483 1197.974854,458.447266 1197.993652,437.474915 
	C1198.016846,411.483307 1197.999268,385.491638 1197.999390,358.500000 
z"/>
<path fill="#000000" opacity="1.000000" stroke="none" 
	d="
M933.831299,444.478912 
	C930.720337,461.086365 922.346191,473.257019 906.790344,479.475067 
	C901.951904,481.409149 896.528320,482.819336 891.363281,482.849060 
	C846.380981,483.107819 801.396362,483.069672 756.412842,482.967255 
	C734.179016,482.916656 714.093201,462.907837 714.037109,440.713593 
	C713.922974,395.563507 713.922241,350.412659 714.037720,305.262573 
	C714.093872,283.291077 734.048340,263.125458 755.937012,263.050690 
	C801.253479,262.895844 846.571045,262.913177 891.887695,263.042908 
	C913.396606,263.104462 933.761597,282.707977 933.890686,304.088135 
	C934.172424,350.735291 933.927002,397.385681 933.831299,444.478912 
M923.999634,342.500000 
	C923.999390,331.169739 924.011780,319.839478 923.996155,308.509247 
	C923.967163,287.496033 909.494751,273.014160 888.473694,273.006195 
	C845.485596,272.989929 802.497437,272.989777 759.509338,273.006317 
	C738.497559,273.014435 724.014587,287.503296 724.006165,308.526184 
	C723.989075,351.514313 723.988953,394.502411 724.006287,437.490540 
	C724.014771,458.503998 738.505066,472.985840 759.526062,472.993805 
	C802.514160,473.010071 845.502319,473.010254 888.490417,472.993713 
	C909.502319,472.985596 923.981384,458.496765 923.994019,437.474030 
	C924.012878,406.149353 923.999390,374.824677 923.999634,342.500000 
z"/>
<path fill="#F8EDBA" opacity="1.000000" stroke="none" 
	d="
M896.231079,109.638344 
	C896.118530,111.232834 896.030273,112.383965 895.930725,113.681938 
	C894.188049,113.846840 892.563171,114.000587 890.959412,114.152351 
	C890.263855,117.771271 890.263855,117.771271 895.856323,118.388863 
	C896.060242,120.117683 896.269775,121.894707 896.494202,123.797516 
	C898.192017,123.941010 899.831543,124.079582 901.805725,124.246437 
	C902.022156,125.997574 902.237366,127.738556 902.483826,129.732925 
	C904.221191,129.921738 905.979614,130.112823 907.915527,130.323212 
	C907.915527,132.829056 907.915527,135.260223 907.915527,137.796249 
	C901.336731,137.796249 895.039734,137.796249 888.401062,137.796249 
	C888.193359,135.950607 887.997437,134.209854 887.767456,132.166397 
	C885.973938,132.026291 884.227539,131.889862 882.289612,131.738464 
	C882.138794,129.837296 882.009827,128.211746 881.880432,126.585732 
	C879.538879,126.304619 879.538879,126.304619 877.669189,137.793335 
	C873.396606,137.793335 869.096436,137.793335 864.418640,137.793335 
	C864.418640,123.333649 864.418640,108.966606 864.418640,94.318909 
	C868.922607,94.318909 873.343933,94.318909 878.062012,94.318909 
	C878.062012,100.049622 878.062012,105.691994 878.062012,111.395271 
	C883.756165,113.384514 881.262146,108.620499 882.690430,106.391815 
	C883.919617,106.234940 885.661438,106.012642 887.740967,105.747246 
	C887.922974,104.087509 888.114075,102.344711 888.341309,100.272141 
	C890.158203,100.128166 891.905518,99.989700 893.881409,99.833130 
	C893.995667,97.973434 894.095215,96.352676 894.216003,94.387505 
	C898.698364,94.387505 903.121826,94.387505 907.873657,94.387505 
	C907.873657,96.697014 907.873657,99.109138 907.873657,101.713806 
	C906.160339,101.856766 904.537842,101.992149 902.552673,102.157791 
	C902.343201,103.883560 902.132385,105.620583 901.936768,107.232201 
	C899.980713,107.907974 898.117981,108.551483 896.231079,109.638344 
z"/>
<path fill="#F8EDBA" opacity="1.000000" stroke="none" 
	d="
M812.185791,135.422211 
	C811.324951,136.565216 810.507568,137.802811 809.615417,137.859268 
	C805.996704,138.088318 802.354980,137.954468 798.186951,137.954468 
	C798.186951,133.931396 798.186951,130.203094 798.186951,126.226700 
	C792.735901,126.226700 787.815674,126.226700 782.370117,126.226700 
	C782.370117,129.930664 782.370117,133.658676 782.370117,137.666687 
	C777.465332,137.666687 773.076782,137.666687 768.363281,137.666687 
	C768.363281,127.225349 768.363281,116.864708 768.363281,106.271355 
	C770.152771,106.133232 771.765076,106.008789 773.692444,105.860023 
	C773.900574,104.116425 774.107788,102.379959 774.352844,100.326286 
	C776.116333,100.150291 777.860596,99.976212 779.833130,99.779343 
	C779.962341,98.024315 780.081360,96.407402 780.227905,94.416199 
	C786.633850,94.416199 793.031921,94.416199 799.799927,94.416199 
	C800.004883,95.971046 800.233459,97.705193 800.499451,99.723305 
	C802.199280,99.914360 803.951721,100.111328 805.874573,100.327438 
	C806.075439,102.144348 806.271606,103.918373 806.480591,105.808853 
	C808.223389,105.950684 809.860962,106.083954 812.194824,106.273888 
	C812.194824,115.854782 812.194824,125.414307 812.185791,135.422211 
M782.172302,111.666733 
	C782.172302,113.615868 782.172302,115.564995 782.172302,117.769722 
	C787.649658,117.769722 792.677917,117.769722 797.794495,117.769722 
	C797.794495,114.412437 797.794495,111.345619 797.794495,108.239731 
	C795.797729,107.994385 794.056274,107.780403 792.234375,107.556541 
	C792.113098,105.665756 792.009460,104.050644 791.907410,102.460670 
	C788.733643,102.334854 788.733643,102.334854 787.878540,105.876419 
	C785.230469,108.140221 783.702393,109.446518 782.172302,111.666733 
z"/>
<path fill="#F7EDBA" opacity="1.000000" stroke="none" 
	d="
M1244.197510,104.835136 
	C1243.208862,106.156418 1242.286987,107.732292 1241.222900,107.834885 
	C1237.775757,108.167244 1234.276733,107.959000 1230.485474,107.959000 
	C1230.233032,105.998497 1230.009766,104.264221 1229.749756,102.245209 
	C1224.696655,102.245209 1219.611084,102.245209 1214.361084,102.245209 
	C1214.361084,105.370216 1214.361084,108.342422 1214.361084,111.824249 
	C1222.133789,111.824249 1229.856689,111.824249 1237.768433,111.824249 
	C1238.040527,114.060661 1238.255005,115.822678 1238.490845,117.761803 
	C1240.283936,117.945786 1242.055176,118.127541 1244.004395,118.327553 
	C1244.004395,122.769775 1244.004395,127.065720 1244.004395,131.625473 
	C1242.145996,131.833832 1240.389771,132.030731 1238.480591,132.244751 
	C1238.276855,134.069183 1238.078125,135.847900 1237.872559,137.689209 
	C1227.310913,137.689209 1216.887939,137.689209 1206.257446,137.689209 
	C1206.127563,135.821289 1206.015381,134.206802 1205.882568,132.296921 
	C1204.091064,132.089508 1202.346069,131.887482 1200.328613,131.653900 
	C1200.328613,129.298889 1200.328613,127.033920 1200.328613,124.402481 
	C1204.670044,124.402481 1209.081299,124.402481 1213.828857,124.402481 
	C1214.035889,126.005051 1214.260498,127.742538 1214.520142,129.752075 
	C1219.501465,129.752075 1224.412842,129.752075 1229.684570,129.752075 
	C1229.684570,126.753105 1229.684570,123.693077 1229.684570,120.086777 
	C1222.085571,120.086777 1214.351196,120.086777 1206.274658,120.086777 
	C1206.116699,117.846466 1205.994385,116.109901 1205.855591,114.141876 
	C1203.987305,114.020355 1202.364746,113.914810 1200.392944,113.786560 
	C1200.392944,109.348381 1200.392944,104.961693 1200.392944,100.287285 
	C1202.088623,100.142448 1203.700195,100.004799 1205.654053,99.837921 
	C1205.864380,98.170090 1206.084106,96.428719 1206.344360,94.364624 
	C1216.740112,94.364624 1227.154663,94.364624 1237.834473,94.364624 
	C1238.039673,96.061470 1238.252808,97.824051 1238.487671,99.766632 
	C1240.133545,99.921021 1241.759033,100.073517 1243.840210,100.268745 
	C1243.955933,101.605133 1244.077515,103.010139 1244.197510,104.835136 
z"/>
<path fill="#F8EDBA" opacity="1.000000" stroke="none" 
	d="
M500.997437,94.041328 
	C506.819336,94.041328 512.141846,94.041328 517.766785,94.041328 
	C518.014893,95.984467 518.237122,97.724655 518.492676,99.726128 
	C520.221985,99.919418 521.982788,100.116226 523.967285,100.338043 
	C523.967285,106.681358 523.967285,112.966805 523.967285,119.594101 
	C522.229736,119.798897 520.489258,120.004036 518.500732,120.238411 
	C518.311035,122.001556 518.121216,123.765778 517.883606,125.974014 
	C510.044556,125.974014 502.279938,125.974014 494.200195,125.974014 
	C494.200195,130.066803 494.200195,133.705185 494.200195,137.649139 
	C489.485535,137.649139 485.091217,137.649139 480.367371,137.649139 
	C480.367371,123.346176 480.367371,109.092316 480.367371,94.041328 
	C486.992920,94.041328 493.745514,94.041328 500.997437,94.041328 
M509.251190,102.090851 
	C504.340088,102.090851 499.428986,102.090851 494.509033,102.090851 
	C494.509033,107.668304 494.509033,112.721718 494.509033,117.811050 
	C499.768890,117.811050 504.688660,117.811050 509.935150,117.811050 
	C509.935150,112.639435 509.935150,107.702271 509.251190,102.090851 
z"/>
<path fill="#F8EDBA" opacity="1.000000" stroke="none" 
	d="
M982.000549,143.958679 
	C976.537842,143.958679 971.573547,143.958679 966.330811,143.958679 
	C966.330811,141.274750 966.330811,139.016205 966.330811,136.424927 
	C974.144226,136.082184 982.015625,135.743118 989.879089,135.271820 
	C989.937012,135.268356 989.886292,133.453217 989.886292,131.969635 
	C982.000061,131.969635 974.250244,131.969635 966.308167,131.969635 
	C966.140625,129.858109 966.012512,128.243927 965.860718,126.330849 
	C964.130493,126.115616 962.383179,125.898262 960.343628,125.644547 
	C960.343628,119.348610 960.343628,113.085167 960.343628,106.429527 
	C964.676208,106.429527 969.078430,106.429527 973.982056,106.429527 
	C973.982056,112.025497 973.982056,117.766869 973.982056,123.772903 
	C979.410400,123.772903 984.349731,123.772903 989.845947,123.772903 
	C989.845947,118.146553 989.845947,112.419281 989.845947,106.373123 
	C994.804993,106.373123 999.218506,106.373123 1003.916992,106.373123 
	C1003.916992,116.765663 1003.916992,127.180885 1003.916992,137.716232 
	C1002.111877,137.866302 1000.470947,138.002716 998.527527,138.164291 
	C998.321045,139.939728 998.117554,141.688843 997.853516,143.958679 
	C992.722351,143.958679 987.610657,143.958679 982.000549,143.958679 
z"/>
<path fill="#F8EDBA" opacity="1.000000" stroke="none" 
	d="
M613.322693,106.242912 
	C614.017517,108.158867 614.286499,109.933716 614.575623,111.841072 
	C616.279236,111.970009 617.920105,112.094200 619.874634,112.242126 
	C619.874634,116.728355 619.874634,121.132332 619.874634,125.887512 
	C610.168518,125.887512 600.549805,125.887512 591.135498,125.887512 
	C589.476379,128.820190 590.001465,130.101624 593.199341,130.063141 
	C600.018066,129.981079 606.838379,130.038040 613.926392,130.038040 
	C613.926392,132.748337 613.926392,135.180984 613.926392,137.786438 
	C603.412720,137.786438 593.124146,137.786438 582.477905,137.786438 
	C582.243225,136.029312 582.012329,134.300400 581.738159,132.247620 
	C580.064392,132.072525 578.317993,131.889832 576.316223,131.680435 
	C576.316223,125.280067 576.316223,119.021095 576.316223,112.410370 
	C578.039551,112.202332 579.779663,111.992271 581.835205,111.744125 
	C581.974243,109.980286 582.111389,108.240509 582.279968,106.101814 
	C592.655212,106.101814 602.776062,106.101814 613.322693,106.242912 
M606.035522,116.467323 
	C605.511047,115.640495 605.021729,114.125603 604.456543,114.096786 
	C600.302612,113.885040 596.121887,113.808044 591.979492,114.105667 
	C591.195374,114.162010 590.544861,116.077568 589.217285,118.049271 
	C594.985840,118.049271 599.287659,118.081070 603.588196,118.020065 
	C604.365173,118.009048 605.136719,117.616821 606.035522,116.467323 
z"/>
<path fill="#F8EDBA" opacity="1.000000" stroke="none" 
	d="
M943.813721,137.958679 
	C935.054016,137.958679 926.770569,137.958679 918.293823,137.958679 
	C918.134399,135.843979 918.012756,134.229828 917.869080,132.324020 
	C916.117737,132.108093 914.371338,131.892792 912.338745,131.642212 
	C912.338745,125.340355 912.338745,119.082268 912.338745,112.457291 
	C913.987610,112.237206 915.718567,112.006149 917.796936,111.728729 
	C917.946899,110.038246 918.101318,108.297569 918.277710,106.309601 
	C928.900940,106.309601 939.327454,106.309601 949.876221,106.309601 
	C950.082520,108.163521 950.280762,109.944618 950.491760,111.840912 
	C952.291016,111.974297 953.931641,112.095917 955.880188,112.240364 
	C955.880188,116.734497 955.880188,121.139214 955.880188,125.890961 
	C946.166809,125.890961 936.549561,125.890961 927.134766,125.890961 
	C925.477783,128.815994 925.994446,130.101593 929.195984,130.063065 
	C936.012634,129.981033 942.830933,130.038010 949.921631,130.038010 
	C949.921631,132.742706 949.921631,135.172516 949.921631,137.958679 
	C947.901672,137.958679 946.095825,137.958679 943.813721,137.958679 
M938.304504,113.944878 
	C934.355957,113.944878 930.407471,113.944878 926.451477,113.944878 
	C926.604309,118.549873 929.955017,119.225632 943.402283,117.353012 
	C941.414978,115.720581 940.335205,114.833588 938.304504,113.944878 
z"/>
<path fill="#F8EDBA" opacity="1.000000" stroke="none" 
	d="
M1312.035400,113.958672 
	C1308.579956,113.958672 1305.614502,113.958672 1302.348511,113.958672 
	C1302.348511,111.307159 1302.348511,109.049171 1302.348511,106.414261 
	C1312.646362,106.414261 1323.051514,106.414261 1333.806641,106.414261 
	C1334.010620,107.989967 1334.236206,109.731285 1334.495239,111.732094 
	C1336.222412,111.922058 1337.983765,112.115791 1339.966553,112.333862 
	C1339.966553,120.678680 1339.966553,128.959641 1339.966553,137.600418 
	C1327.535522,137.600418 1315.165527,137.600418 1302.428223,137.600418 
	C1302.226074,135.990387 1302.008667,134.259827 1301.750977,132.207535 
	C1300.023926,132.055374 1298.278076,131.901535 1296.299805,131.727219 
	C1296.299805,129.235977 1296.299805,126.976677 1296.299805,124.398376 
	C1298.060059,124.188965 1299.806396,123.981216 1301.791748,123.745033 
	C1301.937012,122.080521 1302.078003,120.466408 1302.266602,118.306839 
	C1309.932861,118.306839 1317.658325,118.306839 1325.514648,118.306839 
	C1326.421997,115.355568 1326.307495,113.792915 1323.013184,113.928070 
	C1319.522583,114.071281 1316.021729,113.959236 1312.035400,113.958672 
M1310.200684,128.448685 
	C1315.282837,128.875839 1320.363647,129.329193 1325.454346,129.586868 
	C1325.588745,129.593674 1325.830933,127.472267 1326.090454,125.946228 
	C1321.359985,125.946228 1317.264404,125.842606 1313.180908,126.019562 
	C1312.167480,126.063477 1311.193237,127.015755 1310.200684,128.448685 
z"/>
<path fill="#F8EDBA" opacity="1.000000" stroke="none" 
	d="
M1110.033203,134.074844 
	C1108.320557,132.794434 1106.614868,131.963394 1104.359131,130.864288 
	C1104.359131,125.258400 1104.359131,118.877327 1104.359131,112.265533 
	C1106.162354,112.132965 1107.776001,112.014328 1109.694824,111.873260 
	C1109.903809,110.104584 1110.109253,108.365356 1110.348755,106.338333 
	C1120.812256,106.338333 1131.224243,106.338333 1141.850220,106.338333 
	C1142.057495,108.104446 1142.265625,109.878006 1142.490112,111.790138 
	C1144.174194,111.934753 1145.808838,112.075127 1147.816895,112.247566 
	C1147.816895,118.652351 1147.816895,125.026558 1147.816895,131.653625 
	C1146.117798,131.840591 1144.353882,132.034698 1142.484009,132.240479 
	C1142.272705,134.086746 1142.069336,135.864883 1141.829956,137.956573 
	C1132.067871,137.956573 1122.431274,138.052139 1112.803467,137.806732 
	C1111.855103,137.782547 1110.960083,135.668335 1110.033203,134.074844 
M1118.172363,126.275505 
	C1118.976807,127.532883 1119.693848,129.798111 1120.600342,129.876602 
	C1124.982666,130.256134 1129.415894,130.047638 1133.712646,130.047638 
	C1133.712646,124.300606 1133.712646,119.246643 1133.712646,114.217468 
	C1128.450073,114.217468 1123.536865,114.217468 1118.172119,114.217468 
	C1118.172119,118.093636 1118.172119,121.711853 1118.172363,126.275505 
z"/>
<path fill="#F7EDBA" opacity="1.000000" stroke="none" 
	d="
M715.885620,124.723831 
	C716.060181,127.239899 716.060181,129.376129 716.060181,131.687866 
	C714.029297,131.887024 712.267517,132.059784 710.417786,132.241165 
	C710.268494,134.048645 710.132935,135.689392 709.971802,137.639923 
	C697.504578,137.639923 685.132202,137.639923 672.398926,137.639923 
	C672.398926,135.293594 672.398926,132.929718 672.398926,130.188736 
	C682.100952,130.188736 691.693848,130.188736 701.381714,130.188736 
	C702.494934,127.452377 702.518372,125.886002 699.122009,125.933853 
	C692.325867,126.029617 685.527344,125.962280 678.407349,125.962280 
	C678.184814,123.941414 677.994019,122.209061 677.769653,120.171501 
	C675.972229,120.029259 674.228149,119.891235 672.276367,119.736786 
	C672.276367,117.191505 672.276367,114.933823 672.276367,112.344330 
	C674.100342,112.154762 675.842773,111.973671 677.820374,111.768143 
	C677.953430,110.038681 678.077820,108.422630 678.231689,106.423431 
	C688.625549,106.423431 699.016907,106.423431 709.805664,106.423431 
	C709.805664,108.608734 709.805664,110.982384 709.805664,113.961678 
	C703.084229,113.961678 696.332214,114.044312 689.583862,113.922340 
	C686.753723,113.871185 685.478760,114.659714 686.700439,117.944992 
	C694.194397,117.944992 701.815430,117.944992 709.737305,117.944992 
	C710.005493,119.966080 710.235535,121.699928 710.500916,123.699654 
	C712.200623,123.909859 713.955872,124.126923 715.885620,124.723831 
z"/>
<path fill="#F7EDBA" opacity="1.000000" stroke="none" 
	d="
M648.986633,106.039619 
	C653.473206,106.039619 657.463379,106.039619 661.825684,106.039619 
	C661.825684,108.636124 661.825684,111.024796 661.825684,113.908249 
	C654.065796,113.908249 646.319885,113.908249 638.754272,113.908249 
	C637.472656,117.356247 638.771362,118.129257 641.595276,118.077438 
	C648.243774,117.955421 654.895996,118.038338 661.785828,118.038338 
	C662.032471,120.043686 662.248596,121.801178 662.489136,123.756760 
	C664.259338,123.933472 666.021729,124.109406 667.981934,124.305084 
	C667.981934,126.760017 667.981934,129.050156 667.981934,131.671371 
	C666.140869,131.853378 664.389465,132.026520 662.482361,132.215042 
	C662.276428,134.067749 662.078735,135.846863 661.863281,137.785645 
	C649.444519,137.785645 637.147339,137.785645 624.444946,137.785645 
	C624.444946,135.374695 624.444946,133.008102 624.444946,130.244904 
	C634.022766,130.244904 643.625183,130.244904 653.307922,130.244904 
	C654.759644,127.009819 654.010803,125.848473 650.684021,125.919472 
	C644.044861,126.061188 637.400513,125.961472 630.442688,125.961472 
	C630.205811,123.963707 630.000305,122.230919 629.758118,120.188736 
	C627.990112,120.042061 626.243896,119.897202 624.282898,119.734520 
	C624.282898,117.203453 624.282898,114.943405 624.282898,112.352875 
	C626.094971,112.159241 627.839172,111.972855 629.820740,111.761101 
	C629.953674,110.034821 630.078186,108.417557 630.261292,106.039619 
	C636.311462,106.039619 642.400818,106.039619 648.986633,106.039619 
z"/>
<path fill="#F8EDBA" opacity="1.000000" stroke="none" 
	d="
M1074.043701,97.219147 
	C1075.043701,95.846230 1075.976807,94.271484 1077.052612,94.167191 
	C1080.499756,93.832954 1083.999878,94.043030 1087.975830,94.043030 
	C1087.975830,98.007767 1087.975830,101.739189 1087.975830,105.921524 
	C1092.208984,105.921524 1095.955200,105.921524 1099.937012,105.921524 
	C1099.937012,108.804970 1099.937012,111.235985 1099.937012,113.975166 
	C1096.051147,113.975166 1092.420654,113.975166 1088.313965,113.975166 
	C1088.313965,121.991852 1088.313965,129.713791 1088.313965,137.693878 
	C1083.436646,137.693878 1079.042847,137.693878 1074.116821,137.693878 
	C1074.116821,129.849182 1074.116821,122.138161 1074.116821,114.068634 
	C1070.003418,114.068634 1066.404053,114.068634 1062.426514,114.068634 
	C1062.426514,111.346260 1062.426514,108.982040 1062.426514,106.244583 
	C1066.050781,106.244583 1069.655518,106.244583 1074.042236,106.244583 
	C1074.042236,103.166031 1074.042236,100.428246 1074.043701,97.219147 
z"/>
<path fill="#F8EDBA" opacity="1.000000" stroke="none" 
	d="
M1424.197021,119.970154 
	C1424.197021,126.106476 1424.197021,131.740784 1424.197021,137.665222 
	C1419.468750,137.665222 1415.082886,137.665222 1410.166992,137.665222 
	C1410.166992,129.903275 1410.166992,122.191933 1410.166992,113.957520 
	C1405.935669,113.957520 1402.202637,113.957520 1398.269531,113.957520 
	C1398.269531,111.169724 1398.269531,108.916397 1398.269531,106.129570 
	C1402.109619,106.129570 1405.844482,106.129570 1409.913208,106.129570 
	C1409.913208,102.015472 1409.913208,98.417953 1409.913208,94.432365 
	C1414.646606,94.432365 1419.038696,94.432365 1423.949707,94.432365 
	C1423.949707,97.982536 1423.949707,101.703606 1423.949707,105.875885 
	C1428.188477,105.875885 1431.933105,105.875885 1435.935547,105.875885 
	C1435.935547,108.757431 1435.935547,111.187553 1435.935547,113.939423 
	C1432.087280,113.939423 1428.468628,113.939423 1424.197144,113.939423 
	C1424.197144,115.986984 1424.197144,117.727562 1424.197021,119.970154 
z"/>
<path fill="#F8EDBA" opacity="1.000000" stroke="none" 
	d="
M1278.444336,137.925369 
	C1274.206909,137.952118 1270.417114,137.952118 1266.278931,137.952118 
	C1266.278931,129.960846 1266.278931,122.371414 1266.278931,114.233467 
	C1262.224731,114.233467 1258.506592,114.233467 1254.418457,114.233467 
	C1254.418457,111.330887 1254.418457,108.966324 1254.418457,106.227875 
	C1258.072021,106.227875 1261.675171,106.227875 1265.818359,106.227875 
	C1265.818359,102.169945 1265.818359,98.451988 1265.818359,94.389618 
	C1270.750610,94.389618 1275.151367,94.389618 1280.029785,94.389618 
	C1280.029785,98.060089 1280.029785,101.810883 1280.029785,106.008247 
	C1284.243652,106.008247 1287.999146,106.008247 1291.968262,106.008247 
	C1291.968262,108.740158 1291.968262,111.023048 1291.968262,113.814987 
	C1288.157349,113.814987 1284.427490,113.814987 1280.197021,113.814987 
	C1280.197021,120.576035 1280.283936,126.838844 1280.137329,133.096176 
	C1280.099731,134.705826 1279.326904,136.298264 1278.444336,137.925369 
z"/>
<path fill="#F7EDBA" opacity="1.000000" stroke="none" 
	d="
M1365.828857,111.992416 
	C1367.157959,110.353432 1368.029663,108.691574 1369.239990,106.384506 
	C1374.691895,106.384506 1381.103149,106.384506 1387.859253,106.384506 
	C1387.859253,108.670937 1387.859253,111.069176 1387.859253,113.825340 
	C1382.191284,113.825340 1376.596069,113.825340 1370.717651,113.825340 
	C1370.410156,115.855316 1370.148071,117.585312 1369.838257,119.630157 
	C1368.179688,119.827644 1366.441406,120.034622 1364.250244,120.295532 
	C1364.250244,126.087952 1364.250244,131.825455 1364.250244,137.705490 
	C1359.369141,137.705490 1354.958252,137.705490 1350.295044,137.705490 
	C1350.295044,127.218750 1350.295044,116.983734 1350.295044,106.393204 
	C1354.746216,106.393204 1359.146118,106.393204 1363.485596,106.393204 
	C1364.103882,108.221169 1364.737671,110.095360 1365.828857,111.992416 
z"/>
<path fill="#F7EDBA" opacity="1.000000" stroke="none" 
	d="
M544.648376,137.959991 
	C541.050903,137.960312 537.908386,137.960312 534.406067,137.960312 
	C534.406067,127.329132 534.406067,116.974777 534.406067,106.328308 
	C538.890869,106.328308 543.305847,106.328308 547.891113,106.328308 
	C548.061707,107.991440 548.229065,109.622192 548.402222,111.252106 
	C551.720032,111.898972 551.720032,111.898972 552.539551,106.299751 
	C558.904846,106.299751 565.311035,106.299751 571.918335,106.299751 
	C571.918335,108.844971 571.918335,111.269485 571.918335,113.976242 
	C566.010681,113.976242 560.380920,113.976242 554.588440,113.976242 
	C554.334534,116.017960 554.113037,117.798935 553.880859,119.666138 
	C552.020203,119.883163 550.242004,120.090569 548.197510,120.329041 
	C548.197510,125.297966 548.106384,130.097839 548.236328,134.891724 
	C548.300354,137.251251 547.491455,138.306229 544.648376,137.959991 
z"/>
<path fill="#0000FF" opacity="1.000000" stroke="none" 
	d="
M1026.757446,547.393555 
	C1029.348877,547.199402 1031.510254,547.015076 1033.671631,547.014221 
	C1076.497803,546.997314 1119.323975,546.992188 1162.150146,547.005615 
	C1183.507690,547.012329 1197.985474,561.425293 1197.993774,582.701416 
	C1198.010498,625.527588 1198.008667,668.353760 1197.994629,711.179932 
	C1197.987549,732.519836 1183.559570,746.985840 1162.268799,746.993713 
	C1119.442627,747.009583 1076.616455,747.008545 1033.790283,746.994080 
	C1012.473083,746.986877 998.013611,732.540161 998.006104,711.239136 
	C997.990967,668.412964 997.993103,625.586792 998.005554,582.760620 
	C998.010864,564.297546 1008.439880,551.335693 1026.757446,547.393555 
z"/>
<path fill="#FFFF00" opacity="1.000000" stroke="none" 
	d="
M894.373596,547.221619 
	C914.152527,551.611267 923.996521,563.942322 923.997986,583.858398 
	C924.001160,626.023804 924.002808,668.189209 923.997437,710.354614 
	C923.994629,732.785278 909.891174,746.992554 887.613586,746.996704 
	C845.114868,747.004578 802.616150,747.006897 760.117432,746.995483 
	C738.397827,746.989685 724.013062,732.690613 724.005554,711.085632 
	C723.990662,668.253601 723.985901,625.421570 724.007690,582.589539 
	C724.018372,561.566956 738.497925,547.004456 759.442322,547.012390 
	C804.272766,547.029358 849.103210,547.107971 894.373596,547.221619 
z"/>
<path fill="#FF0000" opacity="1.000000" stroke="none" 
	d="
M1197.999390,359.000000 
	C1197.999268,385.491638 1198.016846,411.483307 1197.993652,437.474915 
	C1197.974854,458.447266 1183.450928,472.982483 1162.483765,472.992615 
	C1119.497559,473.013367 1076.511475,473.013214 1033.525269,472.992676 
	C1012.553101,472.982635 998.017517,458.451202 998.007385,437.483826 
	C997.986511,394.497650 997.986694,351.511505 998.007263,308.525330 
	C998.017334,287.553101 1012.548828,273.017517 1033.516113,273.007385 
	C1076.502319,272.986603 1119.488403,272.986786 1162.474609,273.007324 
	C1183.446777,273.017334 1197.966675,287.548523 1197.994751,308.515930 
	C1198.016968,325.177246 1197.999390,341.838654 1197.999390,359.000000 
z"/>
<path fill="#008000" opacity="1.000000" stroke="none" 
	d="
M923.999634,343.000000 
	C923.999390,374.824677 924.012878,406.149353 923.994019,437.474030 
	C923.981384,458.496765 909.502319,472.985596 888.490417,472.993713 
	C845.502319,473.010254 802.514160,473.010071 759.526062,472.993805 
	C738.505066,472.985840 724.014771,458.503998 724.006287,437.490540 
	C723.988953,394.502411 723.989075,351.514313 724.006165,308.526184 
	C724.014587,287.503296 738.497559,273.014435 759.509338,273.006317 
	C802.497437,272.989777 845.485596,272.989929 888.473694,273.006195 
	C909.494751,273.014160 923.967163,287.496033 923.996155,308.509247 
	C924.011780,319.839478 923.999390,331.169739 923.999634,343.000000 
z"/>
<path fill="#082441" opacity="1.000000" stroke="none" 
	d="
M782.173340,111.209778 
	C783.702393,109.446518 785.230469,108.140221 787.878540,105.876419 
	C788.733643,102.334854 788.733643,102.334854 791.907410,102.460670 
	C792.009460,104.050644 792.113098,105.665756 792.234375,107.556541 
	C794.056274,107.780403 795.797729,107.994385 797.794495,108.239731 
	C797.794495,111.345619 797.794495,114.412437 797.794495,117.769722 
	C792.677917,117.769722 787.649658,117.769722 782.172302,117.769722 
	C782.172302,115.564995 782.172302,113.615868 782.173340,111.209778 
z"/>
<path fill="#082441" opacity="1.000000" stroke="none" 
	d="
M509.593170,102.427979 
	C509.935150,107.702271 509.935150,112.639435 509.935150,117.811050 
	C504.688660,117.811050 499.768890,117.811050 494.509033,117.811050 
	C494.509033,112.721718 494.509033,107.668304 494.509033,102.090851 
	C499.428986,102.090851 504.340088,102.090851 509.593170,102.427979 
z"/>
<path fill="#082441" opacity="1.000000" stroke="none" 
	d="
M605.973145,116.933960 
	C605.136719,117.616821 604.365173,118.009048 603.588196,118.020065 
	C599.287659,118.081070 594.985840,118.049271 589.217285,118.049271 
	C590.544861,116.077568 591.195374,114.162010 591.979492,114.105667 
	C596.121887,113.808044 600.302612,113.885040 604.456543,114.096786 
	C605.021729,114.125603 605.511047,115.640495 605.973145,116.933960 
z"/>
<path fill="#082441" opacity="1.000000" stroke="none" 
	d="
M938.779907,113.945740 
	C940.335205,114.833588 941.414978,115.720581 943.402283,117.353012 
	C929.955017,119.225632 926.604309,118.549873 926.451477,113.944878 
	C930.407471,113.944878 934.355957,113.944878 938.779907,113.945740 
z"/>
<path fill="#082441" opacity="1.000000" stroke="none" 
	d="
M1310.200806,127.999588 
	C1311.193237,127.015755 1312.167480,126.063477 1313.180908,126.019562 
	C1317.264404,125.842606 1321.359985,125.946228 1326.090454,125.946228 
	C1325.830933,127.472267 1325.588745,129.593674 1325.454346,129.586868 
	C1320.363647,129.329193 1315.282837,128.875839 1310.200806,127.999588 
z"/>
<path fill="#082441" opacity="1.000000" stroke="none" 
	d="
M1118.172241,125.802780 
	C1118.172119,121.711853 1118.172119,118.093636 1118.172119,114.217468 
	C1123.536865,114.217468 1128.450073,114.217468 1133.712646,114.217468 
	C1133.712646,119.246643 1133.712646,124.300606 1133.712646,130.047638 
	C1129.415894,130.047638 1124.982666,130.256134 1120.600342,129.876602 
	C1119.693848,129.798111 1118.976807,127.532883 1118.172241,125.802780 
z"/>
</svg>